<svg width="75" height="75" viewBox="0 0 75 75" fill="none" xmlns="http://www.w3.org/2000/svg">
<g clip-path="url(#clip0_77_208)">
<path d="M21.1415 29.7378C21.0572 33.0556 22.3837 34.5249 22.4165 35.458C22.4009 35.6479 22.3492 35.8304 22.2656 35.9902C22.182 36.15 22.069 36.2824 21.9361 36.3764L20.4361 37.6889C20.242 37.859 20.0131 37.9566 19.7763 37.9702C19.7259 37.9673 18.8165 38.2383 17.3763 34.2187C16.4976 35.5898 15.3796 36.6913 14.1079 37.439C12.8362 38.1868 11.4444 38.5609 10.0392 38.5327C8.13139 38.6631 2.96108 37.1792 3.22709 30.2988C3.04076 24.6914 7.2185 21.208 11.5392 21.5024C12.3712 21.5053 14.0705 21.5566 17.0458 22.4209V20.1328C17.3611 16.2568 15.3232 13.2495 11.7947 13.7007C11.5134 13.7021 9.52123 13.6274 6.42279 15.1816C5.5603 15.6767 5.45014 15.5947 5.16303 15.5947C4.29467 15.5947 4.65209 12.4482 4.8185 12.0498C5.42904 11.1123 9.02084 9.36179 12.5458 9.3867C14.9028 9.12614 17.2471 10.0354 19.072 11.9179C19.8138 12.9552 20.3798 14.1696 20.7357 15.4878C21.0916 16.8061 21.2301 18.2009 21.1427 19.5879L21.1415 29.7378ZM11.0142 34.4824C14.8146 34.4136 16.4236 31.5571 16.7904 30.019C17.0787 28.5469 17.0306 27.6152 17.0306 26.0054C15.8974 25.6655 14.2662 25.2949 12.3947 25.292C10.6193 25.125 7.3767 26.1167 7.50326 30.0176C7.35795 32.477 8.80639 34.6172 11.0142 34.4824ZM31.0439 37.8589C30.1228 37.9643 29.6939 37.147 29.5579 36.3398L23.722 12.2212C23.6083 11.8139 23.5333 11.3935 23.497 10.9643C23.4755 10.7874 23.511 10.607 23.5959 10.4628C23.6807 10.3186 23.8078 10.2224 23.9494 10.1953C23.9775 10.1894 23.6997 10.1953 26.5568 10.1953C27.5857 10.0664 27.9208 11.0786 28.0275 11.7143L32.2134 32.3437L36.0993 11.7143C36.1615 11.2427 36.4439 10.0928 37.5994 10.2143H39.6103C39.8646 10.188 40.9122 10.1411 41.0962 11.7334L45.0126 32.6264L49.3333 11.7334C49.3896 11.414 49.6521 10.0678 50.8193 10.2143H53.1302C53.2298 10.1953 53.8509 10.0957 53.7454 11.4712C53.6951 11.7422 54.1451 9.90965 47.5638 36.3589C47.429 37.166 46.999 37.9834 46.0779 37.8779H43.8876C42.6056 38.0464 42.4216 36.4629 42.4017 36.3032L38.5158 16.2158L34.6744 36.2827C34.6556 36.4424 34.4716 38.0259 33.1884 37.8574H31.0439V37.8589ZM63.0923 38.6836C62.4033 38.685 59.1173 38.6396 56.3704 36.8833C56.0968 36.7385 55.8638 36.4953 55.7008 36.1847C55.5379 35.8741 55.4524 35.5101 55.4552 35.1387V33.5639C55.4552 32.3262 56.1818 32.5532 56.49 32.7012C57.6665 33.2959 58.4212 33.747 59.8661 34.1074C64.1611 35.2104 66.0501 33.7705 66.513 33.4512C68.054 32.3071 68.1759 29.6894 67.1283 28.3315C65.9001 27.0439 65.3142 26.9956 60.9021 25.2554C60.3583 25.0664 55.781 23.2617 55.7704 17.5854C55.699 13.4487 58.706 9.35593 63.9173 9.38963C65.4021 9.38816 69.3583 9.99461 70.4294 11.6777C70.5876 11.9839 70.6661 12.3442 70.6544 12.709V14.1899C70.6544 14.8403 70.4646 15.1655 70.0837 15.1655C69.1802 15.0395 67.5771 13.5293 64.3228 13.5908C63.5154 13.5381 59.6482 13.7241 59.8216 17.2485C59.7712 20.0259 62.94 21.0674 63.3021 21.1875C67.5747 22.7944 69.0033 23.061 70.699 25.5205C72.7076 28.7798 71.6247 32.5957 71.2087 33.6416C68.9728 39.1333 63.1908 38.6865 63.0923 38.6836ZM67.8033 54.0439C59.5966 61.6201 47.6833 65.6528 37.5115 65.6528C23.7865 65.766 10.5241 59.4576 0.331389 47.9678C-0.433845 47.105 0.241155 45.9228 1.17162 46.5805C12.4784 54.6653 25.2801 58.9132 38.306 58.9028C48.0334 58.8376 57.6547 56.371 66.6173 51.6445C67.9978 50.9121 69.1685 52.7871 67.8033 54.0439ZM71.224 49.1675C70.174 47.48 64.2771 48.3794 61.6368 48.7734C60.8411 48.8862 60.7064 48.0234 61.4271 47.3862C66.1228 43.2597 73.8349 44.4419 74.7208 45.8291C75.6056 47.2163 74.4806 56.8755 70.0849 61.4897C69.4099 62.2031 68.7642 61.8266 69.0642 60.8891C70.0533 57.7764 72.274 50.8564 71.224 49.1675Z" fill="#66FCF1"/>
</g>
<defs>
<clipPath id="clip0_77_208">
<rect width="75" height="75" fill="white"/>
</clipPath>
</defs>
</svg>
