<svg width="75" height="75" viewBox="0 0 75 75" fill="none" xmlns="http://www.w3.org/2000/svg">
<path d="M43.75 6.25H18.75C15.3 6.25 12.5 9.05 12.5 12.5V62.5C12.5 65.95 15.3 68.75 18.75 68.75H56.25C59.7 68.75 62.5 65.95 62.5 62.5V25L43.75 6.25ZM29.5187 54.4125C30.3781 54.4125 31.3344 54.2219 31.9 54L32.3312 56.2281C31.8062 56.4906 30.625 56.7719 29.0906 56.7719C24.725 56.7719 22.475 54.0562 22.475 50.4562C22.4719 46.15 25.5469 43.75 29.3687 43.75C30.85 43.75 31.9719 44.05 32.4781 44.3125L31.8969 46.5812C31.3125 46.3375 30.5094 46.1156 29.4969 46.1156C27.2281 46.1156 25.4656 47.4844 25.4656 50.2938C25.4687 52.8187 26.9719 54.4125 29.5187 54.4125ZM37.3031 56.7719C35.8625 56.7719 34.4375 56.4 33.725 56.0063L34.3062 53.6438C35.075 54.0375 36.2562 54.4312 37.475 54.4312C38.7875 54.4312 39.4812 53.8875 39.4812 53.0625C39.4812 52.275 38.8812 51.825 37.3625 51.2812C35.2625 50.55 33.8969 49.3906 33.8969 47.5531C33.8969 45.4 35.6937 43.75 38.675 43.75C40.0969 43.75 41.1469 44.05 41.8969 44.3844L41.2594 46.6906C40.7531 46.4469 39.8562 46.0906 38.6156 46.0906C37.3781 46.0906 36.7812 46.6562 36.7812 47.3094C36.7812 48.1156 37.4937 48.4719 39.1219 49.0906C41.3531 49.9156 42.4031 51.0781 42.4031 52.8562C42.4 54.975 40.7687 56.7719 37.3031 56.7719ZM47.4281 56.7719C45.9875 56.7719 44.5625 56.4 43.85 56.0063L44.4312 53.6438C45.2 54.0375 46.3812 54.4312 47.6 54.4312C48.9125 54.4312 49.6062 53.8875 49.6062 53.0625C49.6062 52.275 49.0062 51.825 47.4875 51.2812C45.3875 50.55 44.0219 49.3906 44.0219 47.5531C44.0219 45.4 45.8187 43.75 48.8 43.75C50.2219 43.75 51.2719 44.05 52.0219 44.3844L51.3844 46.6906C50.8781 46.4469 49.9812 46.0906 48.7406 46.0906C47.5031 46.0906 46.9062 46.6562 46.9062 47.3094C46.9062 48.1156 47.6187 48.4719 49.2469 49.0906C51.4781 49.9156 52.5281 51.0781 52.5281 52.8562C52.5281 54.975 50.8937 56.7719 47.4281 56.7719ZM43.75 28.125C42.0219 28.125 40.625 28.125 40.625 28.125V12.5L56.25 28.125H43.75Z" fill="#66FCF1"/>
</svg>
