<svg width="75" height="75" viewBox="0 0 75 75" fill="none" xmlns="http://www.w3.org/2000/svg">
<path d="M74.2207 57.6797C71.5488 58.3594 69.8965 57.709 68.4141 55.4824C65.0859 50.4961 61.4121 45.7383 57.8672 40.8926C57.4102 40.2656 56.9356 39.6504 56.3438 38.8711C52.1484 44.5313 47.959 49.9219 44.0273 55.5293C42.6211 57.5332 41.1445 58.4063 38.5195 57.6973L54.293 36.5274L39.6094 17.4082C42.1348 16.916 43.8809 17.168 45.4277 19.4297C48.8438 24.4219 52.6113 29.1738 56.3672 34.2012C60.1465 29.1914 63.8672 24.4336 67.3828 19.4883C68.7949 17.4844 70.3125 16.7227 72.8496 17.4609C70.9277 20.0098 69.0469 22.5176 67.1543 25.0078C64.5996 28.3652 62.0918 31.7637 59.4434 35.0508C58.5 36.2227 58.6523 36.9844 59.4961 38.0918C64.3945 44.5313 69.2344 51.0352 74.2207 57.6797Z" fill="#66FCF1"/>
<path d="M0.779297 36.1758C1.20117 34.0606 1.48242 31.9043 2.06836 29.8301C5.58398 17.2734 19.998 12.0527 29.9004 19.834C35.7012 24.3984 37.1426 30.832 36.8555 38.086H4.16016C3.66797 51.0996 13.0371 58.957 24.9785 54.9492C29.168 53.543 31.6348 50.2617 32.8711 46.1602C33.498 44.1035 34.5352 43.7813 36.4688 44.3672C35.4785 49.5 33.2344 53.7891 28.5469 56.4727C21.5156 60.4922 11.4785 59.1914 6.19922 53.6074C3.08203 50.3262 1.75781 46.2422 1.17188 41.8301C1.08398 41.127 0.902344 40.4356 0.761719 39.7383C0.773438 38.5508 0.779297 37.3633 0.779297 36.1758ZM4.21875 35.3027H33.7676C33.5742 25.8926 27.7148 19.207 19.7051 19.1485C10.916 19.0781 4.59961 25.6055 4.21875 35.3027Z" fill="#66FCF1"/>
</svg>
