<svg width="75" height="75" viewBox="0 0 75 75" fill="none" xmlns="http://www.w3.org/2000/svg">
<path d="M65.3916 25.6945C69.1419 24.1059 72.0337 21.7225 73.6283 18.906C75.2229 16.0894 75.4332 12.9933 74.2274 10.0874C73.0216 7.18146 70.4655 4.62432 66.9467 2.80387C63.428 0.98343 59.1388 -0.000974929 54.7297 7.24535e-07H20.2703C15.8612 -0.000974929 11.5719 0.98343 8.05318 2.80387C4.53447 4.62432 1.97832 7.18146 0.772518 10.0874C-0.433287 12.9933 -0.222944 16.0894 1.37164 18.906C2.96621 21.7225 5.85801 24.1059 9.60833 25.6945C6.67082 26.9379 4.24606 28.6752 2.56438 30.7415C0.882694 32.8078 -4.97594e-05 35.1343 2.10372e-09 37.5002C4.97636e-05 39.866 0.882892 42.1926 2.56466 44.2588C4.24643 46.325 6.67127 48.0623 9.60883 49.3057C6.606 50.579 4.14089 52.3679 2.45776 54.4951C0.774621 56.6222 -0.0681121 59.0138 0.0130582 61.4328C0.0942286 63.8518 1.09649 66.2144 2.92052 68.2863C4.74455 70.3582 7.32705 72.0675 10.4121 73.245C13.4972 74.4224 16.9777 75.0271 20.5088 74.9991C24.04 74.971 27.4991 74.3113 30.5436 73.0852C33.588 71.8591 36.112 70.1092 37.8655 68.0089C39.619 65.9086 40.5411 63.5308 40.5405 61.1112V47.4062C42.5741 48.7751 45.0064 49.8346 47.6785 50.5154C50.3506 51.1961 53.2023 51.4828 56.0472 51.3567C58.892 51.2307 61.666 50.6946 64.1879 49.7837C66.7097 48.8728 68.9226 47.6074 70.6819 46.0704C72.4412 44.5333 73.7073 42.7592 74.3974 40.864C75.0875 38.9687 75.1861 36.995 74.6868 35.0718C74.1875 33.1487 73.1015 31.3194 71.4997 29.7035C69.898 28.0876 67.8166 26.7215 65.3916 25.6945ZM68.9189 13.889C68.9146 16.4655 67.4197 18.9356 64.7617 20.7581C62.1038 22.5805 58.4997 23.6065 54.7396 23.6112L54.7297 23.611L54.7101 23.6113L40.5405 23.611V4.16671H54.7297C58.4916 4.1696 62.0982 5.19484 64.7583 7.0175C67.4184 8.84016 68.9146 11.3114 68.9189 13.889ZM6.08108 13.889C6.08529 11.3114 7.58158 8.84016 10.2416 7.0175C12.9017 5.19484 16.5083 4.1696 20.2703 4.16671H34.4594V23.611H20.2703L20.2606 23.6111C16.5004 23.6065 12.8963 22.5805 10.2383 20.7581C7.58032 18.9357 6.08534 16.4655 6.08108 13.889ZM6.08108 37.5C6.08532 34.9235 7.5803 32.4533 10.2383 30.6309C12.8963 28.8085 16.5004 27.7825 20.2606 27.7779L20.2703 27.778L34.4594 27.7778V47.222L20.2703 47.2223C16.5083 47.2194 12.9017 46.1942 10.2416 44.3715C7.58158 42.5489 6.0853 40.0776 6.08108 37.5ZM20.2703 70.8333C18.4059 70.8344 16.5596 70.5837 14.8367 70.0956C13.1138 69.6075 11.5482 68.8915 10.2294 67.9886C8.91058 67.0858 7.86436 66.0136 7.15055 64.8335C6.43674 63.6535 6.06933 62.3886 6.06933 61.1112C6.06933 59.8337 6.43674 58.5688 7.15055 57.3888C7.86436 56.2087 8.91058 55.1365 10.2294 54.2337C11.5482 53.3308 13.1138 52.6148 14.8367 52.1267C16.5596 51.6386 18.4059 51.3879 20.2703 51.389L34.4594 51.3888V61.1112C34.4552 63.6888 32.9588 66.1599 30.2988 67.9826C27.6387 69.8052 24.0321 70.8304 20.2703 70.8333ZM54.7297 47.2223C50.9689 47.2216 47.3625 46.1979 44.7027 44.3761C42.0429 42.5544 40.5474 40.0837 40.5448 37.5069C40.5422 34.93 42.0328 32.4579 44.6889 30.6337C47.345 28.8094 50.9494 27.7823 54.7101 27.778H54.7297L54.7393 27.7779C58.5001 27.7813 62.105 28.8075 64.7621 30.6311C67.4192 32.4547 68.9109 34.9265 68.9097 37.5034C68.9084 40.0802 67.4142 42.5513 64.7553 44.3737C62.0964 46.1961 58.4904 47.2207 54.7297 47.2223Z" fill="#66FCF1"/>
</svg>
