<svg width="75" height="75" viewBox="0 0 75 75" fill="none" xmlns="http://www.w3.org/2000/svg">
<g clip-path="url(#clip0_83_280)">
<path d="M37.4996 5.35718C36.4891 5.35718 35.4788 5.71655 34.7045 6.43554L28.6261 12.0798L35.4344 18.4015C36.0996 18.1914 36.7971 18.0829 37.4996 18.0804C39.221 18.0804 40.8718 18.7154 42.089 19.8456C43.3062 20.9758 43.99 22.5088 43.99 24.1072C43.9881 24.76 43.8719 25.4083 43.646 26.0265L52.7421 34.4729C53.4073 34.2628 54.1047 34.1543 54.8073 34.1518C56.5287 34.1518 58.1795 34.7868 59.3967 35.917C60.6139 37.0473 61.2977 38.5802 61.2977 40.1786C61.2977 41.777 60.6139 43.3099 59.3967 44.4402C58.1795 45.5704 56.5287 46.2054 54.8073 46.2054C53.086 46.2054 51.4351 45.5704 50.2179 44.4402C49.0008 43.3099 48.3169 41.777 48.3169 40.1786C48.319 39.5259 48.4351 38.8777 48.661 38.2596L40.3843 30.5741V50.8592C41.4658 51.3575 42.3762 52.1259 43.0131 53.0783C43.6501 54.0306 43.9884 55.129 43.99 56.25C43.99 57.8484 43.3062 59.3814 42.089 60.5116C40.8718 61.6419 39.221 62.2768 37.4996 62.2768C35.7783 62.2768 34.1274 61.6419 32.9102 60.5116C31.6931 59.3814 31.0093 57.8484 31.0093 56.25C31.0098 55.1281 31.3476 54.0286 31.9847 53.0752C32.6217 52.1219 33.5327 51.3526 34.615 50.854V29.498C33.5335 28.9998 32.6231 28.2313 31.9861 27.279C31.3492 26.3266 31.0109 25.2282 31.0093 24.1072C31.0113 23.4544 31.1274 22.8063 31.3533 22.1882L24.5467 15.8678L1.16095 37.5831C-0.387634 39.0211 -0.387634 41.3362 1.16095 42.7741L34.7045 73.9217C36.253 75.3596 38.7462 75.3596 40.2948 73.9217L73.8383 42.7741C75.3869 41.3362 75.3869 39.0211 73.8383 37.5831L40.2948 6.43554C39.5205 5.71655 38.5101 5.35718 37.4996 5.35718Z" fill="#66FCF1"/>
</g>
<defs>
<clipPath id="clip0_83_280">
<rect width="75" height="75" fill="white"/>
</clipPath>
</defs>
</svg>
