<svg width="75" height="75" viewBox="0 0 75 75" fill="none" xmlns="http://www.w3.org/2000/svg">
<g clip-path="url(#clip0_83_317)">
<path fill-rule="evenodd" clip-rule="evenodd" d="M44.7 8.58423L62.0279 17.4772C62.5159 17.0178 63.0858 16.6122 63.7323 16.2784C67.3261 14.442 71.9098 15.5323 73.9972 18.7268C76.0631 21.9213 74.8364 25.9956 71.2427 27.8511C70.6011 28.1789 69.9272 28.4135 69.2413 28.5595V46.3524C69.9198 46.4986 70.5863 46.7317 71.2212 47.0561C74.8364 48.9116 76.063 52.9859 73.9757 56.1804C71.9098 59.3749 67.3046 60.4652 63.7108 58.6288C62.9953 58.2633 62.3737 57.8082 61.8532 57.2886L44.6309 66.1273C44.8771 66.7886 45.0103 67.4959 45.0103 68.2314C45.0103 71.904 41.6533 74.9072 37.5 74.9072C33.3467 74.9072 29.9897 71.9232 29.9897 68.2314C29.9897 67.5751 30.0957 66.9413 30.2935 66.3425L12.9702 57.4519C12.4874 57.9023 11.9254 58.3004 11.2892 58.6288C7.67389 60.4652 3.09022 59.3749 1.02435 56.1804C-1.04153 52.9859 0.185082 48.9116 3.77885 47.0561C4.41426 46.7314 5.08062 46.4982 5.75865 46.352V28.5595C5.07277 28.4135 4.39893 28.1789 3.75733 27.8511C0.163563 26.0148 -1.06305 21.9213 1.00283 18.7268C3.0687 15.5323 7.67389 14.442 11.2677 16.2784C11.9107 16.6103 12.4779 17.0134 12.9641 17.4697L30.2967 8.57434C30.0969 7.97277 29.9897 7.33561 29.9897 6.67585C29.9897 2.98405 33.3467 0 37.5 0C41.6533 0 45.0103 2.98405 45.0103 6.67585C45.0103 7.33923 44.9019 7.97976 44.7 8.58423ZM42.8946 11.3242L60.2638 20.2383C59.7269 21.9145 59.924 23.7731 60.9778 25.4026C62.0351 27.0375 63.7576 28.1213 65.6691 28.5437V46.3588C65.5717 46.3801 65.4748 46.403 65.3784 46.4277L42.693 11.5022C42.7614 11.444 42.8287 11.3847 42.8946 11.3242ZM32.3118 11.5063L9.62676 46.4312C9.52868 46.4058 9.43004 46.3823 9.3309 46.3605V28.5437C11.2424 28.1213 12.9649 27.0375 14.0222 25.4026C15.0781 23.7698 15.2739 21.9072 14.733 20.2284L32.0973 11.3168C32.1674 11.3812 32.2389 11.4444 32.3118 11.5063ZM39.5985 13.0885L62.2784 48.0055C61.7708 48.4356 61.3234 48.9369 60.9563 49.5046C60.5914 50.0689 60.3291 50.6613 60.1646 51.2644H14.8358C14.6713 50.6617 14.4089 50.0694 14.0437 49.5046C13.6751 48.9405 13.2287 48.442 12.7236 48.0137L35.4079 13.0901C36.0718 13.2604 36.7737 13.3517 37.5 13.3517C38.2286 13.3517 38.9327 13.2599 39.5985 13.0885ZM43.0541 63.7339L60.3106 54.8776C60.2588 54.7331 60.2125 54.587 60.1719 54.4397H14.8262C14.8022 54.5262 14.7762 54.6124 14.7483 54.698L32.0894 63.5977C33.4548 62.3382 35.373 61.5555 37.5 61.5555C39.7027 61.5555 41.6814 62.3948 43.0541 63.7339Z" fill="#66FCF1"/>
</g>
<defs>
<clipPath id="clip0_83_317">
<rect width="75" height="75" fill="white"/>
</clipPath>
</defs>
</svg>
