<svg width="75" height="75" viewBox="0 0 75 75" fill="none" xmlns="http://www.w3.org/2000/svg">
<g clip-path="url(#clip0_72_151)">
<path d="M47.7401 48.3111C44.6328 48.5859 41.5026 48.0687 38.7014 46.8176C38.0669 46.3569 37.5432 45.7831 37.1626 45.1315C36.782 44.48 36.5526 43.7645 36.4886 43.0294C36.4873 42.9194 36.462 42.8107 36.4141 42.7097C36.3662 42.6086 36.2967 42.5172 36.2096 42.4406C36.1225 42.3641 36.0196 42.304 35.9067 42.2638C35.7939 42.2237 35.6733 42.2042 35.5521 42.2066C34.2438 42.1921 32.9358 42.1953 31.6278 42.205C31.3992 42.1838 31.1706 42.2453 30.9916 42.376C30.8126 42.5068 30.6976 42.6963 30.6716 42.9035C30.597 44.1933 30.8373 45.4821 31.3752 46.6778C31.9132 47.8736 32.7355 48.9467 33.7835 49.8206C36.4291 51.694 39.6414 52.7905 42.9917 52.9638C46.4826 53.3313 50.0155 53.1952 53.4595 52.5605C56.104 52.1129 58.5285 50.9272 60.3947 49.1689C61.4264 48.0147 62.1178 46.6414 62.404 45.1781C62.6903 43.7148 62.562 42.2095 62.0312 40.8035C61.5853 39.8124 60.8953 38.9272 60.0139 38.2157C59.1325 37.5042 58.0833 36.9853 56.9466 36.699C51.6539 35.0137 45.9365 35.1412 40.5408 33.8606C39.6041 33.593 38.4595 33.3026 38.0421 32.4026C37.8007 31.7693 37.7842 31.0833 37.9949 30.4411C38.2055 29.7988 38.6327 29.2326 39.2164 28.8222C40.9106 27.9435 42.8397 27.5077 44.79 27.5629C47.437 27.3367 50.1053 27.6832 52.5762 28.5738C53.3185 28.97 53.9568 29.508 54.4469 30.1505C54.937 30.793 55.2671 31.5246 55.4143 32.2946C55.4213 32.5218 55.5217 32.7384 55.6957 32.9019C55.8697 33.0654 56.1048 33.1639 56.3548 33.1783C57.6537 33.2023 58.9532 33.1847 60.2521 33.1863C60.4774 33.2107 60.7048 33.1606 60.8926 33.045C61.0804 32.9295 61.2159 32.7563 61.2742 32.5573C61.2857 30.9674 60.8393 29.4022 59.9792 28.017C59.1191 26.6318 57.8751 25.4745 56.3704 24.6598C52.2174 22.9205 47.6076 22.2804 43.0714 22.8132C39.7478 22.9368 36.5724 24.0943 34.0786 26.0918C32.9337 27.2116 32.1584 28.6007 31.841 30.1008C31.5237 31.601 31.677 33.1518 32.2835 34.5768C32.7557 35.5313 33.4503 36.3815 34.3195 37.0689C35.1887 37.7563 36.2119 38.2645 37.3184 38.5584C42.5934 40.2874 48.3749 39.7326 53.7011 41.2615C54.7391 41.581 55.9477 42.0697 56.2657 43.118C56.4366 43.7462 56.4237 44.4041 56.2282 45.0264C56.0328 45.6488 55.6616 46.214 55.1514 46.6661C52.9362 47.9149 50.3404 48.491 47.7401 48.3111ZM71.7864 16.6408C61.4873 11.3558 51.1859 6.07551 40.8822 0.800035C39.8483 0.275439 38.6836 0 37.4991 0C36.3146 0 35.1498 0.275439 34.116 0.800035C23.8523 6.05956 13.5881 11.3188 3.32331 16.5779C2.32473 17.0718 1.48996 17.7992 0.905594 18.6845C0.321229 19.5699 0.00855297 20.581 0 21.6131V53.3916C0.0164356 54.4424 0.345949 55.4695 0.953593 56.3641C1.56124 57.2587 2.42436 57.9874 3.45141 58.4729C6.39995 59.9293 9.26468 61.534 12.2667 62.8936C13.9993 63.7341 15.9238 64.1972 17.8877 64.2462C19.8517 64.2951 21.8013 63.9287 23.5822 63.1757C24.9148 62.4183 25.9991 61.3503 26.7222 60.0832C27.4452 58.8161 27.7806 57.3962 27.6932 55.9714C27.7162 45.4838 27.6967 34.9957 27.702 24.5078C27.7221 24.3931 27.7153 24.2759 27.6821 24.1638C27.6488 24.0517 27.5898 23.9472 27.5089 23.8572C27.428 23.7673 27.3271 23.6938 27.2128 23.6417C27.0985 23.5895 26.9733 23.5599 26.8455 23.5547C25.5339 23.5355 24.2203 23.5435 22.9088 23.5515C22.7873 23.5417 22.6649 23.5552 22.5497 23.5912C22.4344 23.6272 22.3288 23.685 22.2398 23.7607C22.1509 23.8363 22.0805 23.9282 22.0334 24.0302C21.9863 24.1323 21.9636 24.2422 21.9666 24.3528C21.9489 34.7732 21.9701 45.1965 21.956 55.6185C21.959 56.3379 21.7195 57.0409 21.2697 57.6332C20.8199 58.2256 20.1812 58.6789 19.4393 58.9325C18.5851 59.1616 17.6871 59.2246 16.8042 59.1174C15.9213 59.0102 15.0732 58.7351 14.3154 58.3102C11.5838 56.9102 8.85225 55.5103 6.12076 54.1106C5.93977 54.0328 5.78941 53.9064 5.68993 53.7487C5.59045 53.5909 5.54663 53.4093 5.56437 53.2283C5.56437 42.7436 5.56437 32.2595 5.56437 21.7759C5.54538 21.5719 5.59789 21.3678 5.71441 21.1925C5.83093 21.0173 6.00549 20.8799 6.21317 20.8001C16.4432 15.5716 26.6713 10.3377 36.8974 5.09823C37.075 4.98816 37.2851 4.92941 37.5002 4.9297C37.7153 4.92998 37.9253 4.9893 38.1025 5.09984C48.3322 10.33 58.5614 15.5619 68.7901 20.7957C68.9968 20.8777 69.1701 21.0163 69.2857 21.1921C69.4014 21.3678 69.4537 21.572 69.4353 21.776C69.4335 32.2588 69.4324 42.7424 69.4318 53.2268C69.4499 53.4086 69.4071 53.5912 69.3091 53.7506C69.2111 53.91 69.0624 54.0389 68.8824 54.1204C58.8091 59.2892 48.7304 64.4506 38.6463 69.6046C38.1645 69.8481 37.5943 70.2399 37.0308 69.9449C34.3898 68.5883 31.781 67.1791 29.1488 65.8096C29.0142 65.7163 28.852 65.6615 28.6829 65.6523C28.5138 65.643 28.3456 65.6798 28.1996 65.7579C27.0403 66.3744 25.8199 66.8912 24.5545 67.3015C23.984 67.5112 23.282 67.5709 22.8893 68.0511C23.3899 68.5453 23.9963 68.9417 24.6715 69.2159C27.75 70.8334 30.83 72.4495 33.9117 74.0641C34.9309 74.645 36.1031 74.9673 37.3061 74.9976C38.5092 75.028 39.6993 74.7652 40.7525 74.2366C51.0177 68.9841 61.2825 63.7292 71.5468 58.4718C72.573 57.9855 73.4355 57.2568 74.0433 56.3626C74.6511 55.4684 74.9816 54.442 75 53.3915V21.6131C74.9914 20.6014 74.69 19.6096 74.126 18.7369C73.562 17.8643 72.7551 17.1414 71.7864 16.6408Z" fill="#66FCF1"/>
</g>
<defs>
<clipPath id="clip0_72_151">
<rect width="75" height="75" fill="white"/>
</clipPath>
</defs>
</svg>
