<svg width="75" height="50" viewBox="0 0 75 50" fill="none" xmlns="http://www.w3.org/2000/svg">
<g clip-path="url(#clip0_83_249)">
<path d="M3.75767 0V33.1815L15.5675 16.6574H16.1043L7.3543 28.9172L18.8957 49.9722H15.1381L5.20706 31.8489L3.75767 33.9145V49.9722H0V0H3.75767ZM22.4136 33.5872C22.4136 22.7775 28.033 16.7578 35.3487 16.7578C42.0814 16.7578 47.8598 21.0299 47.8598 32.8105C47.8598 43.6201 42.2404 49.6399 34.9246 49.6399C28.192 49.6399 22.4136 45.3678 22.4136 33.5872ZM25.8994 33.5893C25.8994 44.9774 29.9273 49.2072 34.9219 49.2072C40.185 49.2072 44.374 43.2204 44.374 32.8084C44.374 21.4203 40.3461 17.1904 35.3515 17.1904C30.0884 17.1904 25.8994 23.1773 25.8994 33.5893ZM73.3873 49.4468C67.0404 49.4468 67.3525 44.851 67.3525 44.851V43.9448C66.312 46.2751 64.3351 49.7057 59.1848 49.7057C53.098 49.7057 52.0575 44.9158 51.7453 42.3266C51.2251 37.9898 52.4737 34.7534 61.7339 33.9766C64.075 33.7177 66.7282 33.8472 67.3525 33.9119V23.1669C67.3525 23.1669 67.9248 17.3414 61.89 17.3414C58.6645 17.3414 54.6587 19.0243 53.3581 19.9305L53.15 19.4774C53.8263 19.089 56.9998 16.8235 62.5663 16.8235C70.1098 16.8235 70.9942 20.9662 70.9942 23.1669V44.851C70.9942 49.0584 73.3873 48.9289 73.3873 48.9289H75V49.4468H73.3873ZM60.095 49.273C63.9954 49.273 67.1773 44.8662 67.3313 42.2353V34.2768C66.7154 34.211 64.3033 33.9479 61.7373 34.3426C56.2973 35.1318 55.2195 37.4997 55.5275 42.3011C55.7327 45.524 56.5025 49.273 60.095 49.273Z" fill="#66FCF1"/>
</g>
<defs>
<clipPath id="clip0_83_249">
<rect width="75" height="50" fill="white"/>
</clipPath>
</defs>
</svg>
