<svg width="75" height="75" viewBox="0 0 75 75" fill="none" xmlns="http://www.w3.org/2000/svg">
<path fill-rule="evenodd" clip-rule="evenodd" d="M58.7706 34.3995C58.5798 34.4377 58.389 34.8579 58.389 35.087C58.3508 36.6146 58.3125 40.6633 58.3125 43.413C58.3125 43.4895 58.4269 43.6421 58.5416 43.6421C59.1144 43.6803 60.4894 43.7186 61.6733 43.7186C63.3156 43.7186 64.2704 43.4895 64.8052 43.2605C66.1799 42.573 66.8292 41.0832 66.8292 39.4409C66.8292 35.7365 64.232 34.3231 60.3745 34.3231C60.1072 34.2852 59.3436 34.2852 58.7705 34.3996L58.7706 34.3995ZM68.6245 51.4717C68.6245 47.6907 65.8361 45.59 60.7949 45.59C60.5658 45.59 58.9617 45.5518 58.5797 45.6282C58.465 45.6664 58.3124 45.7429 58.3124 45.8576C58.3124 48.5689 58.2742 52.8849 58.3889 54.5651C58.465 55.2908 59 56.3221 59.6492 56.6276C60.3364 57.0096 61.9026 57.0857 62.9717 57.0857C65.9889 57.0857 68.6242 55.4055 68.6242 51.4715L68.6245 51.4717ZM50.9797 32.2992C51.3613 32.2992 52.5073 32.4136 55.4482 32.4136C58.2361 32.4136 60.4513 32.3375 63.1632 32.3375C66.4856 32.3375 71.0688 33.5213 71.0688 38.4862C71.0688 40.9307 69.35 42.8785 67.0967 43.8333C66.9823 43.8716 66.9823 43.9477 67.0967 43.9859C70.3049 44.7881 73.1315 46.7743 73.1315 50.5169C73.1315 54.1833 70.8399 56.513 67.517 57.9645C65.4927 58.8429 62.9722 59.1484 60.4132 59.1484C58.4653 59.1484 53.2333 58.9193 50.3307 58.9958C50.0252 58.8811 50.598 57.5061 50.8652 57.277C51.5528 57.2388 52.0873 57.2005 52.8131 56.9715C53.8443 56.7042 53.9587 56.3987 54.1116 54.8328C54.1881 53.4961 54.1881 48.7599 54.1881 45.3991C54.1881 40.7777 54.2264 37.646 54.1881 36.1184C54.1499 34.9345 53.7297 34.5525 52.8896 34.3231C52.2403 34.2088 51.1708 34.0558 50.2924 33.9415C50.1012 33.7503 50.7505 32.4518 50.9799 32.2992L50.9797 32.2992ZM28.9425 56.0549C29.8595 56.7803 31.6544 57.0858 33.2585 57.0858C35.321 57.0858 37.3833 56.7042 39.3693 54.9089C41.3937 53.0758 42.8065 50.2497 42.8065 45.7429C42.8065 41.427 41.1641 37.9133 37.8034 35.8512C35.8938 34.667 33.4492 34.1707 30.623 34.1707C29.7828 34.1707 28.9806 34.2089 28.4843 34.4379C28.3696 34.5144 28.1023 34.8582 28.1023 35.049C28.0258 35.8129 28.0258 41.6943 28.0258 45.132C28.0258 48.6838 28.0258 53.6487 28.1023 54.2214C28.1023 54.7946 28.3696 55.6729 28.9424 56.0549L28.9425 56.0549ZM20.273 32.2992C20.9987 32.2992 23.7866 32.4136 25.1235 32.4136C27.5298 32.4136 29.2482 32.2992 33.7931 32.2992C37.6121 32.2992 40.8204 33.3305 43.1121 35.2781C45.9 37.6844 47.3516 41.0072 47.3516 45.0554C47.3516 50.8224 44.7163 54.1454 42.0809 56.0549C39.4459 58.0027 36.0083 59.1485 31.1201 59.1485C28.523 59.1485 24.0547 59.072 20.3498 59.0338H20.3115C20.1207 58.6904 20.617 57.3536 20.9226 57.3153C21.9156 57.2006 22.1829 57.1624 22.6796 56.9716C23.4814 56.6661 23.6344 56.2458 23.7491 54.8329C23.8634 52.1976 23.8252 49.0277 23.8252 45.4375C23.8252 42.8786 23.8634 37.8752 23.787 36.2713C23.6726 34.9349 23.0998 34.5911 21.9538 34.3617C21.381 34.2474 20.617 34.0944 19.5479 33.9801C19.3949 33.7124 20.0825 32.5286 20.2733 32.2996L20.273 32.2992Z" fill="#66FCF1"/>
<path fill-rule="evenodd" clip-rule="evenodd" d="M48.714 22.992C48.1207 22.9208 47.6935 22.826 47.1713 22.5886C47.1003 22.5411 46.9815 22.304 46.9815 22.2089C46.934 21.3783 46.934 19.0051 46.934 17.4151C46.934 16.1335 46.7206 15.0182 46.1746 14.2352C45.5338 13.3333 44.6084 12.8113 43.4218 12.8113C42.3775 12.8113 40.9774 13.5234 39.8145 14.5201C39.7908 14.5436 39.6009 14.7099 39.6247 14.4488C39.6247 14.1877 39.6722 13.6657 39.696 13.3098C39.7197 12.9774 39.5299 12.8113 39.5299 12.8113C38.7703 13.191 36.6345 13.6894 35.8516 13.7605C35.282 13.8793 35.1397 14.425 35.733 14.6149H35.7568C36.3973 14.8047 36.8245 15.0183 37.1567 15.2319C37.394 15.4217 37.3703 15.6829 37.3703 15.8965C37.394 17.6763 37.394 20.4052 37.323 21.9006C37.2992 22.4939 37.1331 22.7072 36.7059 22.8023L36.7532 22.7785C36.4211 22.8498 36.16 22.9208 35.7565 22.9683C35.6142 23.1107 35.6142 23.8702 35.7565 24.0363C36.0176 24.0363 37.394 23.9651 38.5333 23.9651C40.0995 23.9651 40.9064 24.0363 41.3099 24.0363C41.4759 23.8465 41.5235 23.1344 41.4284 22.9683C40.9775 22.9446 40.6453 22.8973 40.3369 22.8023C39.9097 22.7072 39.7909 22.4939 39.7672 21.9954C39.7199 20.7375 39.7199 18.0797 39.7199 16.2763C39.7199 15.7778 39.8622 15.5405 40.0045 15.3982C40.5503 14.9237 41.4285 14.5913 42.2116 14.5913C42.9709 14.5913 43.4694 14.8286 43.8491 15.1373C44.3711 15.5642 44.5372 16.1813 44.6084 16.6322C44.727 17.6527 44.6797 19.6699 44.6797 21.426C44.6797 22.3752 44.6084 22.6126 44.2525 22.7312C44.0864 22.8025 43.6592 22.8975 43.1608 22.9448C42.9947 23.1109 43.0422 23.8467 43.1608 24.0128C43.8491 24.0128 44.6559 23.9415 45.8425 23.9415C47.3137 23.9415 48.2631 24.0128 48.6427 24.0128C48.7613 23.8704 48.8088 23.1821 48.7138 22.9923L48.714 22.992ZM55.2877 13.9268C54.0299 13.9268 53.2468 14.8998 53.2468 16.4185C53.2468 17.961 53.9349 19.7409 55.8811 19.7409C56.2132 19.7409 56.8303 19.5986 57.1149 19.2664C57.5659 18.8393 57.8745 17.9848 57.8745 17.0832C57.8745 15.1135 56.9013 13.927 55.2879 13.927L55.2877 13.9268ZM55.1214 24.416C54.6469 24.416 54.3145 24.5583 54.1012 24.6771C53.1042 25.3177 52.6535 25.9347 52.6535 26.6705C52.6535 27.3586 52.9144 27.9044 53.4841 28.3791C54.1722 28.9724 55.1214 29.2572 56.3318 29.2572C58.7524 29.2572 59.8204 27.9519 59.8204 26.6706C59.8204 25.7687 59.3695 25.1755 58.4441 24.8433C57.7795 24.5584 56.5692 24.4161 55.1216 24.4161L55.1214 24.416ZM55.2877 30.5861C53.8401 30.5861 52.7958 30.2775 51.8942 29.5894C51.016 28.9248 50.6363 27.9281 50.6363 27.24C50.6363 27.0502 50.6839 26.528 51.1111 26.0535C51.3719 25.7686 51.9415 25.2228 53.2943 24.2974C53.3416 24.2736 53.3654 24.2499 53.3654 24.2024C53.3654 24.1549 53.3179 24.1073 53.2706 24.0838C52.1551 23.6566 51.8229 22.9683 51.7279 22.5886V22.5411C51.7043 22.3988 51.6568 22.2565 51.8704 22.1139C52.0365 21.9953 52.2739 21.853 52.5347 21.6869C52.9382 21.4496 53.3654 21.1884 53.6265 20.9749C53.6741 20.9273 53.6741 20.8801 53.6741 20.8325C53.6741 20.785 53.6265 20.7375 53.579 20.714C51.918 20.168 51.0874 18.9339 51.0874 17.083C51.0874 15.8727 51.6331 14.781 52.6061 14.0928C53.2706 13.5706 54.9317 12.93 56.0234 12.93H56.0946C57.2099 12.9536 57.827 13.1909 58.705 13.4995C59.1797 13.6656 59.6306 13.7367 60.2477 13.7367C61.1731 13.7367 61.5766 13.452 61.9087 13.1199C61.9325 13.1672 61.98 13.286 62.0037 13.5944C62.0275 13.903 61.9325 14.3537 61.6951 14.6861C61.5053 14.947 61.0783 15.1371 60.6511 15.1371H60.5323C60.1051 15.0895 59.9153 15.042 59.9153 15.042L59.8205 15.0896C59.7967 15.1371 59.8205 15.1844 59.8442 15.2556L59.868 15.3032C59.9153 15.5168 60.0103 16.1573 60.0103 16.3236C60.0103 18.2695 59.2272 19.1236 58.3966 19.7646C57.5897 20.3579 56.6642 20.7376 55.62 20.8326C55.5962 20.8326 55.5014 20.8326 55.2878 20.8563C55.1691 20.8563 55.003 20.8801 54.9792 20.8801H54.9555C54.7657 20.9274 54.2912 21.1647 54.2912 21.5682C54.2912 21.9241 54.5048 22.3513 55.525 22.4226C55.7386 22.4463 55.9522 22.4463 56.1896 22.4701C57.5422 22.5649 59.2272 22.6837 60.0105 22.9446C61.102 23.348 61.7903 24.321 61.7903 25.484C61.7903 27.2401 60.5325 28.8776 58.4442 29.8979C57.4237 30.3489 56.4032 30.5862 55.288 30.5862L55.2877 30.5861ZM68.8145 14.0454C68.3161 14.0454 67.8651 14.164 67.5329 14.4013C66.6075 14.9708 66.1328 16.1101 66.1328 17.7712C66.1328 20.8802 67.699 23.0634 69.9297 23.0634C70.5942 23.0634 71.1162 22.8736 71.5672 22.4939C72.2553 21.9242 72.6114 20.7851 72.6114 19.1952C72.6114 16.1102 71.0687 14.0455 68.8145 14.0455L68.8145 14.0454ZM69.2417 24.2023C65.2075 24.2023 63.7598 21.2359 63.7598 18.4593C63.7598 16.5134 64.5429 15.0183 66.1091 13.9503C67.2246 13.2622 68.5535 12.8825 69.7401 12.8825C72.8251 12.8825 74.9846 15.0896 74.9846 18.2696C74.9846 20.4292 74.1303 22.1377 72.4927 23.182C71.7096 23.704 70.357 24.2025 69.2414 24.2025L69.2417 24.2023ZM26.9531 14.0454C26.4546 14.0454 26.0039 14.164 25.6715 14.4013C24.746 14.9708 24.2713 16.1101 24.2713 17.7712C24.2713 20.8802 25.8375 23.0634 28.0685 23.0634C28.733 23.0634 29.255 22.8736 29.706 22.4939C30.3941 21.9242 30.7502 20.7851 30.7502 19.1952C30.7502 16.1102 29.2313 14.0455 26.9533 14.0455L26.9531 14.0454ZM27.3803 24.2023C23.346 24.2023 21.8983 21.2359 21.8983 18.4593C21.8983 16.5134 22.6814 15.0183 24.2477 13.9503C25.3632 13.2622 26.6921 12.8825 27.8786 12.8825C30.9639 12.8825 33.1232 15.0896 33.1232 18.2696C33.1232 20.4292 32.2688 22.1377 30.6313 23.182C29.8719 23.704 28.5192 24.2025 27.3802 24.2025L27.3803 24.2023ZM0.256538 23.965C0.20902 23.8939 0.161507 23.6803 0.185265 23.4192C0.185265 23.2294 0.232783 23.1106 0.256538 23.0633C0.754785 22.992 1.01589 22.9207 1.30056 22.8497C1.77528 22.7309 1.96512 22.47 1.98886 21.8767C2.06013 20.4528 2.06013 17.7473 2.03638 15.8726V15.8251C2.03638 15.6115 2.03638 15.3504 1.77527 15.1605C1.39558 14.9234 0.944625 14.7098 0.351352 14.5435C0.137754 14.4724 -0.00457569 14.3536 0.0191872 14.2113C0.0191872 14.069 0.161512 13.9029 0.470141 13.8554C1.25326 13.7841 3.29411 13.2859 4.10081 12.9299C4.14833 12.9772 4.2196 13.1198 4.2196 13.3096L4.19585 13.5705C4.17209 13.8317 4.14832 14.1403 4.14832 14.4487C4.14832 14.5435 4.24336 14.6148 4.33817 14.6148C4.38568 14.6148 4.4332 14.591 4.48071 14.5672C5.99942 13.3807 7.37581 12.9535 8.08767 12.9535C9.25069 12.9535 10.1524 13.4995 10.8408 14.6385C10.8881 14.7098 10.9356 14.7333 11.0068 14.7333C11.0544 14.7333 11.1254 14.7098 11.1492 14.6623C12.5493 13.5943 13.9494 12.9535 14.8749 12.9535C17.082 12.9535 18.3873 14.591 18.3873 17.3677C18.3873 18.1508 18.3873 19.1713 18.3636 20.097C18.3636 20.9275 18.3398 21.687 18.3398 22.2328C18.3398 22.3514 18.5059 22.7311 18.767 22.8023C19.0992 22.9684 19.5502 23.0397 20.1434 23.1345H20.1672C20.2147 23.3006 20.1197 23.9176 20.0249 24.0364C19.8823 24.0364 19.6688 24.0364 19.4316 24.0126C18.9807 23.9889 18.3399 23.9651 17.628 23.9651C16.1566 23.9651 15.3972 23.9889 14.6615 24.0364C14.6142 23.8466 14.5905 23.277 14.6615 23.1345C15.0887 23.0634 15.3023 22.9922 15.5634 22.9209C16.0381 22.7786 16.1567 22.565 16.1805 21.9479C16.1805 21.4972 16.2753 17.6526 16.1329 16.727C15.9906 15.7778 15.2785 14.6626 13.7123 14.6626C13.119 14.6626 12.1936 14.8999 11.2917 15.588C11.2444 15.6355 11.1968 15.7541 11.1968 15.8254V15.8491C11.2917 16.3474 11.2917 16.9171 11.2917 17.795V19.3375C11.2917 20.4055 11.2679 21.4022 11.2917 22.1615C11.2917 22.6837 11.6003 22.8023 11.8614 22.8973C12.0037 22.9208 12.0985 22.9446 12.2173 22.9684C12.4309 23.0159 12.6445 23.0634 12.9767 23.1344C13.0242 23.2295 13.0242 23.5379 12.9529 23.799C12.9292 23.9413 12.8817 24.0126 12.8581 24.0364C12.0512 24.0126 11.2206 23.9888 10.0102 23.9888C9.65425 23.9888 9.03722 24.0126 8.515 24.0126C8.08781 24.0126 7.68436 24.0364 7.44724 24.0364C7.42349 23.9888 7.37597 23.8228 7.37597 23.5616C7.37597 23.348 7.42349 23.1819 7.471 23.1344C7.58957 23.1107 7.68438 23.0872 7.80317 23.0872C8.08781 23.0396 8.32518 22.9921 8.56252 22.9446C8.96595 22.826 9.1083 22.6124 9.13203 22.0904C9.20331 20.9039 9.27436 17.5103 9.10828 16.6559C8.82364 15.2795 8.04052 14.5912 6.78268 14.5912C6.04709 14.5912 5.12142 14.9471 4.36204 15.5169C4.24347 15.6117 4.14844 15.849 4.14844 16.0626V17.4628C4.14844 19.1713 4.14844 21.3074 4.1722 22.2329C4.19595 22.5175 4.29076 22.8499 4.83676 22.9685C4.95533 22.9922 5.14516 23.0398 5.38253 23.0635L5.80972 23.1346C5.85724 23.2771 5.83348 23.8466 5.73845 24.0365C5.50109 24.0365 5.21644 24.0127 4.88407 24.0127C4.38582 23.989 3.74502 23.9652 3.03319 23.9652C2.20255 23.9652 1.60927 23.9889 1.13456 24.0127C0.802391 23.9652 0.541283 23.9652 0.256618 23.9652L0.256538 23.965Z" fill="#66FCF1"/>
<path fill-rule="evenodd" clip-rule="evenodd" d="M9.31139 62.1894L8.33628 61.8563C8.33628 61.8563 8.45534 56.8854 6.67157 56.5287C5.48239 55.1493 6.86183 -1.97904 11.1427 56.3384C11.1427 56.3384 9.66824 57.0757 9.40654 58.3363C9.12103 59.5731 9.3113 62.1894 9.3113 62.1894L9.31139 62.1894Z" fill="#66FCF1"/>
<path fill-rule="evenodd" clip-rule="evenodd" d="M9.31139 62.1894L8.33628 61.8563C8.33628 61.8563 8.45534 56.8854 6.67157 56.5287C5.48239 55.1493 6.86183 -1.97904 11.1427 56.3384C11.1427 56.3384 9.66824 57.0757 9.40654 58.3363C9.12103 59.5731 9.3113 62.1894 9.3113 62.1894L9.31139 62.1894Z" fill="#66FCF1"/>
<path fill-rule="evenodd" clip-rule="evenodd" d="M9.83488 57.3852C9.83488 57.3852 18.3733 51.7721 16.3753 40.0943C14.4489 31.6035 9.90601 28.8208 9.40679 27.7505C8.8598 26.9894 8.33643 25.6576 8.33643 25.6576L8.69336 49.2749C8.69336 49.2987 7.95591 56.5053 9.83493 57.3854" fill="#66FCF1"/>
<path fill-rule="evenodd" clip-rule="evenodd" d="M9.83488 57.3852C9.83488 57.3852 18.3733 51.7721 16.3753 40.0943C14.4489 31.6035 9.90601 28.8208 9.40679 27.7505C8.8598 26.9894 8.33643 25.6576 8.33643 25.6576L8.69336 49.2749C8.69336 49.2987 7.95591 56.5053 9.83493 57.3854" fill="#66FCF1"/>
<path fill-rule="evenodd" clip-rule="evenodd" d="M7.83715 57.6946C7.83715 57.6946 -0.178057 52.2242 0.297717 42.5917C0.749443 32.9593 6.41009 28.2263 7.50416 27.3701C8.2178 26.6091 8.24161 26.3236 8.28924 25.5625C8.78859 26.6329 8.69357 41.5692 8.76478 43.329C8.97885 50.1073 8.38426 56.4102 7.83728 57.6944L7.83715 57.6946Z" fill="#66FCF1"/>
<path fill-rule="evenodd" clip-rule="evenodd" d="M7.83715 57.6946C7.83715 57.6946 -0.178057 52.2242 0.297717 42.5917C0.749443 32.9593 6.41009 28.2263 7.50416 27.3701C8.2178 26.6091 8.24161 26.3236 8.28924 25.5625C8.78859 26.6329 8.69357 41.5692 8.76478 43.329C8.97885 50.1073 8.38426 56.4102 7.83728 57.6944L7.83715 57.6946Z" fill="#66FCF1"/>
</svg>
