<svg width="75" height="75" viewBox="0 0 75 75" fill="none" xmlns="http://www.w3.org/2000/svg">
<path d="M55.66 70.3171C55.3811 70.4647 55.4045 70.5116 55.6717 70.3757C55.7584 70.3405 55.8311 70.2913 55.8944 70.2327C55.8944 70.1835 55.8943 70.1835 55.66 70.3171ZM56.2225 70.0124C56.0889 70.1226 56.0889 70.1226 56.2482 70.0499C56.3326 70.0007 56.4076 69.9538 56.4076 69.9397C56.4076 69.8764 56.3701 69.8905 56.2225 70.0124ZM56.5881 69.7921C56.4545 69.9022 56.4545 69.9022 56.6139 69.8296C56.7006 69.7804 56.7732 69.7288 56.7732 69.7171C56.7732 69.6585 56.7357 69.6702 56.5881 69.7921ZM56.9584 69.5741C56.8248 69.6843 56.8248 69.6843 56.9795 69.6093C57.0662 69.5624 57.1388 69.5132 57.1388 69.4991C57.1388 69.4405 57.1013 69.4522 56.9584 69.5741ZM57.4576 69.2436C57.2021 69.4147 57.1131 69.5249 57.3474 69.403C57.5045 69.3069 57.7716 69.096 57.7248 69.096C57.624 69.1335 57.5396 69.1968 57.4552 69.2436H57.4576ZM35.045 0.017227C34.8739 0.028946 34.3606 0.0758219 33.9107 0.113323C23.2516 1.07897 13.2793 6.81658 6.95838 15.655C3.46395 20.4997 1.19528 26.1271 0.339833 32.0358C0.0374988 34.0984 0 34.7078 0 37.5039C0 40.2977 0.0374988 40.8977 0.339833 42.9603C2.38118 57.0489 12.4027 68.8756 25.9867 73.2586C28.4311 74.039 30.9928 74.5781 33.9107 74.9086C35.045 75.0305 39.9503 75.0305 41.0847 74.9086C46.1283 74.3461 50.3867 73.1015 54.6006 70.9523C55.2475 70.6241 55.3694 70.5374 55.2826 70.4647C53.2202 67.7436 51.1953 65.0201 49.168 62.2732L43.1752 54.18L35.6684 43.0587C33.1654 39.3368 30.6529 35.6242 28.1007 31.9397C28.0749 31.9397 28.0421 36.8828 28.028 42.9111C28.0022 53.4699 28.0023 53.8988 27.8687 54.1425C27.7351 54.4355 27.5148 54.6793 27.2218 54.8152C26.9898 54.9254 26.7812 54.9488 25.6726 54.9488H24.4047L24.0742 54.7426C23.868 54.609 23.6969 54.4238 23.5868 54.2058L23.4274 53.8753L23.4391 39.1774L23.4649 24.4794L23.6969 24.1865C23.8446 24.006 24.0274 23.8583 24.2336 23.7482C24.5406 23.6005 24.6625 23.5771 25.9304 23.5771C27.4187 23.5771 27.6648 23.6357 28.0562 24.0646C31.0936 28.5928 34.1216 33.1327 37.1004 37.6867C41.9729 45.0744 48.6243 55.1551 51.8937 60.1005L57.8396 69.0983L58.1326 68.9038C60.9895 66.9983 63.5886 64.7295 65.8315 62.1419C70.5564 56.7324 73.6219 50.0784 74.6602 42.9767C74.9625 40.9141 75 40.3024 75 37.5086C75 34.7125 74.9625 34.1148 74.6602 32.0522C72.6188 17.9637 62.5973 6.13688 49.0133 1.75164C46.4728 0.947715 43.8596 0.399266 41.2136 0.11801C40.5034 0.0453525 35.6567 -0.041368 35.0473 0.0219146L35.045 0.017227ZM50.389 22.6982C50.7429 22.8669 51.0101 23.1857 51.132 23.5513C51.1953 23.7482 51.207 27.824 51.1953 37.0047L51.1695 50.1862L48.8516 46.6236L46.5196 43.0587V33.489C46.5196 27.285 46.5454 23.8068 46.5782 23.6357C46.6884 23.2443 46.9556 22.9161 47.3118 22.7099C47.6024 22.5622 47.7149 22.5505 48.875 22.5505C49.9602 22.5505 50.143 22.5622 50.3867 22.6982H50.389Z" fill="#66FCF1"/>
</svg>
