<svg width="75" height="75" viewBox="0 0 75 75" fill="none" xmlns="http://www.w3.org/2000/svg">
<g clip-path="url(#clip0_78_215)">
<path d="M37.0664 66.2109C36.8203 66.2109 36.5742 66.123 36.3516 65.9765L34.1016 64.3066C33.7617 64.0722 33.9258 63.9843 34.043 63.9404C34.4883 63.75 34.582 63.706 35.0625 63.3544C35.1094 63.3251 35.1797 63.3398 35.2266 63.3691L36.9609 64.6582C37.0195 64.7021 37.1133 64.7021 37.1719 64.6582L43.9453 59.7656C44.0039 59.7216 44.0508 59.6337 44.0508 59.5312V49.7607C44.0508 49.6582 44.0156 49.5703 43.9453 49.5263L37.1719 44.6484C37.1133 44.6044 37.0312 44.6044 36.9609 44.6484L30.1875 49.5263C30.1172 49.5703 30.082 49.6728 30.082 49.7607V59.5312C30.082 59.6191 30.1289 59.707 30.1875 59.7509L32.0391 61.0839C33.0469 61.7138 33.668 60.9668 33.668 60.2343V50.581C33.668 50.4492 33.75 50.332 33.8672 50.332H34.7227C34.8281 50.332 34.9219 50.4345 34.9219 50.581V60.2343C34.9219 61.9189 34.1953 62.871 32.918 62.871C32.5312 62.871 32.2148 62.871 31.3594 62.3437L29.5781 61.0693C29.1445 60.747 28.8633 60.1611 28.8633 59.5312V49.7607C28.8633 49.1308 29.1328 48.5302 29.5781 48.2226L36.3516 43.33C36.7852 43.0224 37.3477 43.0224 37.7695 43.33L44.543 48.2226C44.9766 48.5449 45.2578 49.1308 45.2578 49.7607V59.5312C45.2578 60.1611 44.9883 60.7617 44.543 61.0693L37.7695 65.9619C37.5703 66.123 37.3242 66.2109 37.0664 66.2109ZM42.5391 56.5722C42.5391 54.7412 41.5547 54.2578 39.4688 53.9062C37.3594 53.5546 37.1484 53.3789 37.1484 52.7636C37.1484 52.2509 37.3242 51.5771 38.8828 51.5771C40.2773 51.5771 40.793 51.958 41.0039 53.1298C41.0273 53.247 41.0977 53.3203 41.1914 53.3203H42.0703C42.1289 53.3203 42.1758 53.291 42.2109 53.247C42.2461 53.1884 42.2695 53.1298 42.2578 53.0566C42.1172 51.0351 41.0508 50.0976 38.8828 50.0976C36.9492 50.0976 35.8008 51.123 35.8008 52.8222C35.8008 54.6826 36.9492 55.1806 38.8008 55.415C41.0156 55.6933 41.1914 56.0888 41.1914 56.6308C41.1914 57.583 40.582 57.9785 39.1523 57.9785C37.3594 57.9785 36.9609 57.4218 36.832 56.3085C36.8203 56.1914 36.7383 56.1035 36.6328 56.1035H35.7539C35.6484 56.1035 35.5547 56.206 35.5547 56.3525C35.5547 57.7734 36.1758 59.4726 39.1406 59.4726C41.3086 59.4726 42.5391 58.4179 42.5391 56.5722ZM48.9258 49.2334C48.9258 50.1269 48.3398 50.8593 47.625 50.8593C46.9102 50.8593 46.3242 50.1269 46.3242 49.2334C46.3242 48.3105 46.9336 47.6074 47.625 47.6074C48.3281 47.5927 48.9258 48.3105 48.9258 49.2334ZM48.7148 49.2334C48.7148 48.4716 48.2227 47.871 47.6133 47.871C47.0156 47.871 46.5234 48.4716 46.5234 49.2334C46.5234 49.9951 47.0156 50.6103 47.6133 50.6103C48.2227 50.5957 48.7148 49.9804 48.7148 49.2334ZM48.1875 50.1416H47.8828C47.8711 50.0537 47.8242 49.5849 47.8242 49.5703C47.8008 49.4677 47.7773 49.4091 47.6719 49.4091H47.4141V50.1416H47.1328V48.3105H47.6367C47.8125 48.3105 48.1523 48.3105 48.1523 48.7939C48.1523 49.1308 47.9766 49.2041 47.8711 49.248C48.0703 49.2626 48.082 49.4238 48.1172 49.6582C48.1289 49.8046 48.1523 50.0537 48.1875 50.1416ZM47.8594 48.8525C47.8594 48.6035 47.7188 48.6035 47.6484 48.6035H47.4141V49.1162H47.6367C47.8242 49.1162 47.8594 48.955 47.8594 48.8525ZM16.0898 27.9785C16.0898 27.583 15.9258 27.2314 15.6563 27.041L8.47266 21.8701C8.35547 21.7822 8.21484 21.7382 8.07422 21.7236H8.00391C7.86328 21.7236 7.73438 21.7822 7.60547 21.8701L0.433594 27.041C0.164063 27.2314 0 27.5976 0 27.9785L0.0117188 41.8945C0.0117188 42.0849 0.09375 42.2607 0.222656 42.3632C0.351562 42.4658 0.515625 42.4658 0.65625 42.3632L4.92188 39.3017C5.19141 39.0966 5.35547 38.7451 5.35547 38.3642V31.8603C5.35547 31.4794 5.51953 31.1132 5.78906 30.9228L7.60547 29.6191C7.74609 29.5166 7.88672 29.4726 8.03906 29.4726C8.19141 29.4726 8.34375 29.5166 8.47266 29.6191L10.2891 30.9228C10.5586 31.1132 10.7227 31.4794 10.7227 31.8603V38.3642C10.7227 38.7451 10.8867 39.1113 11.1562 39.3017L15.4219 42.3632C15.5508 42.4658 15.7266 42.4658 15.8555 42.3632C15.9844 42.2753 16.0664 42.0849 16.0664 41.8945L16.0898 27.9785ZM55.3711 12.788V38.6279C55.3711 39.0087 55.207 39.375 54.9375 39.5654L47.7539 44.7509C47.4844 44.9414 47.1562 44.9414 46.8867 44.7509L39.7031 39.5654C39.4336 39.375 39.2695 39.0087 39.2695 38.6279V28.2568C39.2695 27.8759 39.4336 27.5097 39.7031 27.3193L46.8867 22.1337C47.1562 21.9433 47.4844 21.9433 47.7539 22.1337L49.5469 23.4228C49.7461 23.5693 50.0039 23.3789 50.0039 23.1005V9.331C50.0039 8.92085 50.3555 8.65717 50.6484 8.86225L54.9258 11.8505C55.1953 12.0263 55.3711 12.3925 55.3711 12.788ZM49.9805 31.6699C49.9805 31.5673 49.9336 31.4794 49.875 31.4355L47.4141 29.6484C47.3438 29.6044 47.2617 29.6044 47.1914 29.6484L44.7305 31.4355C44.6602 31.4794 44.625 31.5673 44.625 31.6699V35.2294C44.625 35.332 44.6719 35.4199 44.7305 35.4638L47.1914 37.2363C47.2617 37.2802 47.3438 37.2802 47.4023 37.2363L49.8633 35.4638C49.9336 35.4199 49.9688 35.332 49.9688 35.2294V31.6699H49.9805ZM74.5664 31.5673C74.8359 31.3769 75 31.0107 75 30.6298V28.1249C75 27.7441 74.8359 27.3779 74.5664 27.1875L67.4297 22.0019C67.1602 21.8115 66.832 21.8115 66.5625 22.0019L59.3789 27.1875C59.1094 27.3779 58.9453 27.7441 58.9453 28.1249V38.496C58.9453 38.8916 59.1094 39.2431 59.3789 39.4335L66.5156 44.5166C66.7734 44.707 67.1016 44.707 67.3711 44.5166L71.6836 41.5136C71.9766 41.3085 71.9766 40.7812 71.6836 40.5761L64.4531 35.3906C64.3125 35.288 64.2305 35.1123 64.2305 34.9218V31.6699C64.2305 31.4794 64.3125 31.3037 64.4531 31.2011L66.7031 29.5751C66.832 29.4726 67.0078 29.4726 67.1367 29.5751L69.3867 31.2011C69.5156 31.3037 69.6094 31.4794 69.6094 31.6699V34.2187C69.6094 34.6289 69.9727 34.8925 70.2656 34.6875L74.5664 31.5673ZM65.5078 32.08C65.4609 32.124 65.4258 32.1826 65.4258 32.2558V34.248C65.4258 34.3212 65.4609 34.3945 65.5078 34.4238L66.8906 35.4199C66.9375 35.4638 67.0078 35.4638 67.0547 35.4199L68.4375 34.4238C68.4844 34.3798 68.5195 34.3212 68.5195 34.248V32.2558C68.5195 32.1826 68.4844 32.1093 68.4375 32.08L67.0547 31.0839C67.0078 31.04 66.9375 31.04 66.8906 31.0839L65.5078 32.08ZM35.7188 38.4521V28.1396C35.7188 27.7587 35.5312 27.3925 35.2617 27.2021L28.1016 22.0458C27.8555 21.8701 27.5156 21.8408 27.2344 22.0458L20.0742 27.2021C19.8047 27.3925 19.6172 27.7441 19.6172 28.1396V38.4521C19.6172 38.8623 19.8398 39.2138 20.0859 39.3896L27.2578 44.5458C27.5391 44.7509 27.8672 44.7363 28.125 44.5458L35.2734 39.3896C35.4844 39.2431 35.6367 38.9941 35.6953 38.7011C35.707 38.6279 35.7188 38.54 35.7188 38.4521ZM27.0117 20.1562L26.918 20.2294H27.0469L27.0117 20.1562ZM35.9414 39.2285L35.8945 39.1259V39.2578L35.9414 39.2285Z" fill="#66FCF1"/>
</g>
<defs>
<clipPath id="clip0_78_215">
<rect width="75" height="75" fill="white"/>
</clipPath>
</defs>
</svg>
