<svg width="75" height="60" viewBox="0 0 75 60" fill="none" xmlns="http://www.w3.org/2000/svg">
<path fill-rule="evenodd" clip-rule="evenodd" d="M32.5 0C33.3781 0 34.1919 0.502636 34.6437 1.32409L42.2807 15.2095L45.3451 9.52631C45.7943 8.69329 46.6141 8.18182 47.5 8.18182C48.3859 8.18182 49.2056 8.69329 49.6548 9.52631L74.6549 55.89C75.1095 56.7333 75.1154 57.7773 74.67 58.6265C74.225 59.4758 73.3969 60 72.5 60H2.5C1.59932 60 0.768264 59.4715 0.3245 58.6162C-0.119263 57.7615 -0.107128 56.712 0.356268 55.8698L30.3562 1.32409C30.8081 0.502636 31.6218 0 32.5 0ZM26.871 54.5455H58.0845L42.3232 25.8886L26.871 54.5455ZM39.3941 20.5629L21.0701 54.5455H6.9155L32.5 8.02816L39.3941 20.5629ZM45.2098 20.5353L63.9155 54.5455H68.129L47.5 16.2881L45.2098 20.5353Z" fill="#66FCF1"/>
</svg>
