<svg width="75" height="75" viewBox="0 0 75 75" fill="none" xmlns="http://www.w3.org/2000/svg">
<g clip-path="url(#clip0_72_58)">
<path d="M45.1501 50.75C43.4768 53.1295 41.6533 55.3997 39.6907 57.5469C44.9157 62.6188 49.7782 64.9937 52.472 63.4344C55.172 61.8781 55.5438 56.4812 53.7657 49.4219C51.1001 50.0156 48.2032 50.4656 45.1501 50.75ZM41.0563 51.0219C38.6865 51.12 36.3137 51.12 33.9438 51.0219C35.122 52.5594 36.3126 53.9844 37.5001 55.2844C38.6876 53.9844 39.8751 52.5594 41.0563 51.0219ZM56.8063 26.3531C65.1345 28.7406 70.572 32.7094 70.572 37.5C70.572 42.2906 65.1345 46.2594 56.8063 48.6469C58.9001 57.0531 58.1845 63.7469 54.0376 66.1406C49.8876 68.5375 43.7313 65.8125 37.5001 59.7969C31.2688 65.8125 25.1126 68.5375 20.9626 66.1406C16.8157 63.7469 16.097 57.0531 18.1938 48.6469C9.86572 46.2594 4.42822 42.2906 4.42822 37.5C4.42822 32.7094 9.86572 28.7406 18.1938 26.3531C16.1001 17.9469 16.8157 11.2531 20.9626 8.85937C25.1126 6.4625 31.2688 9.18749 37.5001 15.2031C43.7313 9.18749 49.8876 6.4625 54.0376 8.85937C58.1845 11.2531 58.9032 17.9469 56.8063 26.3531ZM53.7657 25.5781C55.547 18.5156 55.172 13.1219 52.4751 11.5656C49.7782 10.0062 44.9157 12.3812 39.6938 17.4531C41.5407 19.4625 43.3782 21.7469 45.1501 24.25C48.2063 24.5312 51.1001 24.9812 53.7657 25.5781ZM21.2345 49.4219C19.4532 56.4844 19.8282 61.8781 22.5251 63.4344C25.222 64.9937 30.0845 62.6188 35.3063 57.5469C33.3449 55.3996 31.5224 53.1294 29.8501 50.75C26.9529 50.491 24.0752 50.0474 21.2345 49.4219ZM33.9438 23.9781C36.3137 23.88 38.6865 23.88 41.0563 23.9781C39.9329 22.5077 38.7464 21.0866 37.5001 19.7187C36.3126 21.0187 35.1251 22.4437 33.9438 23.9812V23.9781ZM29.8501 24.25C31.5244 21.8704 33.349 19.6002 35.3126 17.4531C30.0845 12.3812 25.2188 10.0062 22.5282 11.5656C19.8282 13.1219 19.4563 18.5187 21.2345 25.5781C23.9001 24.9844 26.797 24.5344 29.8501 24.25ZM43.4188 47.75C45.6434 44.4855 47.6207 41.0593 49.3345 37.5C47.6207 33.9407 45.6434 30.5145 43.4188 27.25C39.4785 26.955 35.5217 26.955 31.5813 27.25C29.3568 30.5145 27.3795 33.9407 25.6657 37.5C27.3795 41.0593 29.3568 44.4855 31.5813 47.75C35.5217 48.045 39.4785 48.045 43.4188 47.75ZM47.4314 47.3406C49.3532 47.0906 51.1813 46.7687 52.9001 46.3906C52.3381 44.6274 51.7 42.8893 50.9876 41.1812C49.8876 43.2815 48.7011 45.3353 47.4314 47.3375V47.3406ZM27.5688 27.6562C25.647 27.9062 23.8188 28.2281 22.1001 28.6062C22.6313 30.2812 23.2688 32.025 24.0126 33.8156C25.1126 31.7154 26.2991 29.6615 27.5688 27.6594V27.6562ZM22.1001 46.3875C23.8188 46.7656 25.647 47.0844 27.5688 47.3375C26.2991 45.3353 25.1126 43.2815 24.0126 41.1812C23.2688 42.9688 22.6313 44.7125 22.1001 46.3875ZM19.0438 45.6219C19.8595 43.0156 20.9188 40.2844 22.2001 37.4969C20.9188 34.7094 19.8595 31.9781 19.0438 29.3719C12.0376 31.3625 7.55322 34.3844 7.55322 37.4969C7.55322 40.6094 12.0376 43.6312 19.0438 45.6219ZM52.9001 28.6062C51.1813 28.2281 49.3532 27.9094 47.4314 27.6562C48.7011 29.6584 49.8876 31.7123 50.9876 33.8125C51.7313 32.025 52.3688 30.2812 52.9001 28.6062ZM55.9563 29.3719C55.1407 31.9781 54.0813 34.7094 52.8001 37.4969C54.0813 40.2844 55.1407 43.0156 55.9563 45.6219C62.9626 43.6312 67.447 40.6094 67.447 37.4969C67.447 34.3844 62.9626 31.3625 55.9563 29.3719ZM37.5001 43.375C35.942 43.375 34.4476 42.756 33.3458 41.6543C32.2441 40.5525 31.6251 39.0581 31.6251 37.5C31.6251 35.9419 32.2441 34.4475 33.3458 33.3457C34.4476 32.244 35.942 31.625 37.5001 31.625C39.0582 31.625 40.5526 32.244 41.6544 33.3457C42.7561 34.4475 43.3751 35.9419 43.3751 37.5C43.3751 39.0581 42.7561 40.5525 41.6544 41.6543C40.5526 42.756 39.0582 43.375 37.5001 43.375Z" fill="#66FCF1"/>
</g>
<defs>
<clipPath id="clip0_72_58">
<rect width="75" height="75" fill="white"/>
</clipPath>
</defs>
</svg>
