<svg width="75" height="75" viewBox="0 0 75 75" fill="none" xmlns="http://www.w3.org/2000/svg">
<path d="M47.9252 74.9391L70.4838 70.057C70.4838 70.057 62.3416 15.0164 62.2807 14.6484C62.2197 14.2805 61.915 14.0508 61.6221 14.0508C61.3174 14.0508 55.5916 13.6242 55.5916 13.6242C55.5916 13.6242 51.6002 9.64453 51.0869 9.21797C50.9533 9.09609 50.8549 9.03516 50.7096 8.98594L47.8525 74.9414L47.9252 74.9391ZM36.5979 35.3273C36.5979 35.3273 34.0596 34.0078 31.0549 34.0078C26.5268 34.0078 26.3557 36.8273 26.3557 37.5727C26.3557 41.4188 36.476 42.9305 36.476 52.0383C36.476 59.2031 31.9713 63.7805 25.8307 63.7805C18.4689 63.7805 14.7705 59.2031 14.7705 59.2031L16.7838 52.6852C16.7838 52.6852 20.6768 56.018 23.9135 56.018C26.0252 56.018 26.965 54.3211 26.965 53.1C26.965 48.0469 18.6635 47.8148 18.6635 39.4898C18.5533 32.4961 23.5713 25.6828 33.7525 25.6828C37.683 25.6828 39.6119 26.8055 39.6119 26.8055L36.6588 35.3016L36.5979 35.3273ZM34.9127 2.5875C35.3275 2.5875 35.7541 2.70938 36.1689 3.01406C33.0916 4.46719 29.7236 8.14219 28.3314 15.4898C26.2807 16.1602 24.2908 16.7602 22.4346 17.2969C24.0471 11.7188 27.9635 2.625 34.9104 2.625L34.9127 2.5875ZM38.7705 11.8031V12.2297C36.415 12.9492 33.8135 13.7437 31.2869 14.5242C32.74 8.96953 35.4494 6.26016 37.8049 5.24766C38.4025 6.81094 38.7682 8.92266 38.7682 11.8031H38.7705ZM40.4533 4.83516C42.6143 5.05547 44.0182 7.53281 44.9088 10.3172C43.8213 10.6711 42.6143 11.0367 41.2947 11.4516V10.6711C41.2947 8.31563 40.99 6.38672 40.4533 4.82344V4.83516ZM49.8049 8.86172C49.7322 8.86172 49.6104 8.92266 49.5611 8.92266C49.5002 8.92266 48.6588 9.15469 47.3275 9.58125C46.008 5.72344 43.6525 2.17266 39.49 2.17266H39.1244C37.9291 0.658594 36.4643 0 35.2057 0C25.5002 0 20.8619 12.1219 19.4088 18.2742C15.6729 19.4086 12.9635 20.2523 12.6588 20.3742C10.5471 21.0445 10.4861 21.1078 10.2424 23.0953C10.0104 24.5367 4.52832 67.0406 4.52832 67.0406L46.8986 75L49.8049 8.86172Z" fill="#66FCF1"/>
</svg>
