<svg width="75" height="75" viewBox="0 0 75 75" fill="none" xmlns="http://www.w3.org/2000/svg">
<path d="M37 31.4212C50.8 31.4212 61.9884 28.773 62 25.5053V57.0791C62 60.3492 50.8071 63.0001 37 63.0001V52.6816L37.0993 52.6844L38.8088 54.334C39.3578 54.8461 39.9222 55.2919 40.5019 55.6712C41.0815 56.0505 41.6875 56.3494 42.3199 56.5677C42.9522 56.7858 43.6446 56.8949 44.3971 56.8949L45.9816 56.8045L47 56.6251V53.9015L46.6213 54.0084L46.1912 54.0907L45.7481 54.1416L45.3456 54.158L44.0937 54.0725L42.9725 53.765L41.8878 53.1598L40.75 52.1811C42.3456 51.6702 43.5894 50.7896 44.4816 49.5396C45.3762 48.2765 45.8235 46.7677 45.8235 45.0133C45.8235 42.7677 45.0919 40.9617 43.6287 39.5955C42.1728 38.2162 40.2696 37.5265 37.9191 37.5265L37 37.5598V31.4212ZM57.5882 18.9212H62V21.5528C62 24.8229 50.8071 27.4738 37 27.4738V20.8949C48.3706 20.8949 57.5882 20.0113 57.5882 18.9212ZM37.7904 40.4738C39.0551 40.4738 40.0441 40.8938 40.7574 41.7337C41.4681 42.5604 41.8235 43.7107 41.8235 45.1844C41.8235 46.6054 41.4522 47.7228 40.7096 48.5363C39.9768 49.3367 38.9731 49.737 37.6985 49.737L37 49.6892V40.5332L37.7904 40.4738ZM58.2941 52.4738V49.737H52.1765V37.737H48.4118V52.4738H58.2941Z" fill="#66FCF1"/>
<path d="M37 63C23.1928 63 12 60.3491 12 57.0789V25.5C12 28.7701 23.1929 31.4211 37 31.4211V37.5311C34.8837 37.6828 33.1582 38.3895 31.8235 39.6512C30.3137 41.0788 29.5588 42.9561 29.5588 45.2828C29.5588 46.3004 29.7376 47.2532 30.0956 48.1413C30.4534 49.0295 30.9601 49.8032 31.6157 50.4621C32.2715 51.1211 33.0612 51.6451 33.9853 52.0345C34.8903 52.4157 35.8951 52.6229 37 52.6559V63ZM62 18.9211H57.5882C57.5882 17.8311 48.3706 16.9474 37 16.9474C25.6294 16.9474 16.4118 17.8311 16.4118 18.9211C16.4118 20.0112 25.6294 20.8947 37 20.8947V27.4737C23.1928 27.4737 12 24.8228 12 21.5526V18.9211C12 15.6511 23.1929 13 37 13C50.8 13 61.9884 15.6483 62 18.9211ZM16.6176 51.8584C17.2181 52.1238 17.9282 52.3234 18.7481 52.4571C19.5679 52.5909 20.4325 52.6578 21.3419 52.6578C22.2266 52.6578 23.0674 52.5828 23.864 52.4325C24.6604 52.2822 25.359 52.035 25.9596 51.6907C26.56 51.3464 27.0354 50.8968 27.386 50.342C27.7365 49.7872 27.9118 49.1008 27.9118 48.2828C27.9118 47.6907 27.8137 47.1716 27.6176 46.7253C27.4215 46.2789 27.1384 45.8821 26.7684 45.5345C26.3982 45.1868 25.9546 44.8749 25.4375 44.5986L23.6875 43.8157L22.4081 43.3009L21.4449 42.7893L20.8326 42.2384C20.6893 42.0443 20.6176 41.8245 20.6176 41.5788C20.6176 41.3442 20.6819 41.1321 20.8106 40.9424L21.3547 40.4538L22.2169 40.138L23.3493 40.0262L24.3088 40.0887L25.3235 40.2828L26.3162 40.615L27.2059 41.0788V38.0558C26.6471 37.8672 26.036 37.7275 25.3731 37.6364L23.0919 37.4999C22.2169 37.4999 21.3884 37.5833 20.6066 37.7499C19.8247 37.9166 19.1366 38.1775 18.5422 38.5328C17.9478 38.888 17.4785 39.3399 17.1341 39.888C16.7897 40.4363 16.6176 41.092 16.6176 41.8551C16.6176 42.8288 16.9288 43.66 17.5515 44.3486C18.174 45.0372 19.12 45.6195 20.3897 46.0953L21.7812 46.638L22.8971 47.1907L23.6397 47.8141C23.821 48.0388 23.9118 48.2938 23.9118 48.5788L23.7407 49.1939C23.6268 49.3826 23.4534 49.5466 23.2206 49.6858L22.351 50.013L21.1324 50.1314C20.3406 50.1314 19.5563 50.0087 18.7794 49.763C18.0024 49.5175 17.2818 49.1491 16.6176 48.6578V51.8584ZM34.6949 41.7268C35.3013 41.0503 36.0697 40.642 37 40.5021V49.6667C36.071 49.5407 35.299 49.1418 34.6838 48.4703C33.9338 47.637 33.5588 46.513 33.5588 45.0986C33.5588 43.6972 33.9375 42.5734 34.6949 41.7268Z" fill="#66FCF1"/>
</svg>
