<svg width="115" height="115" viewBox="0 0 115 115" fill="none" xmlns="http://www.w3.org/2000/svg">
<path d="M71.875 76.6667V67.0833C74.0275 66.0164 80.2043 58.6792 80.8407 52.9329C82.5439 52.8019 85.2018 51.2484 85.988 45.109C86.4185 41.7961 84.7339 39.943 83.7231 39.3628C83.7231 39.3628 86.25 34.5524 86.25 28.75C86.25 17.1265 81.6829 7.1875 71.875 7.1875C71.875 7.1875 68.4684 0 57.5 0C37.1728 0 28.75 13.0461 28.75 28.75C28.75 34.047 31.2769 39.3628 31.2769 39.3628C30.2661 39.943 28.5815 41.8148 29.012 45.109C29.7982 51.2484 32.4561 52.8019 34.1593 52.9329C34.7957 58.6792 40.9725 66.0164 43.125 67.0833V76.6667C38.3333 91.0417 0 81.4583 0 115H115C115 81.4583 76.6667 91.0417 71.875 76.6667Z" fill="white"/>
</svg>
