<svg width="101" height="90" viewBox="0 0 101 90" fill="none" xmlns="http://www.w3.org/2000/svg">
<path fill-rule="evenodd" clip-rule="evenodd" d="M44.1905 2.30884C45.9277 0.818989 48.1407 0 50.4293 0C52.7178 0 54.9308 0.818989 56.668 2.30884L87.028 28.3276L98.9449 37.863C99.4363 38.2563 99.8455 38.7425 100.149 39.2939C100.453 39.8453 100.645 40.4511 100.714 41.0767C100.783 41.7023 100.729 42.3355 100.554 42.94C100.378 43.5446 100.086 44.1086 99.6924 44.6001C99.2991 45.0915 98.8129 45.5007 98.2615 45.8042C97.7101 46.1078 97.1043 46.2997 96.4787 46.3691C95.8531 46.4385 95.2199 46.3841 94.6154 46.2088C94.0108 46.0335 93.4467 45.7409 92.9553 45.3476L88.7626 41.9934V79.9386C88.7626 82.4803 87.7529 84.9178 85.9557 86.7151C84.1585 88.5123 81.7209 89.522 79.1793 89.522H60.0126V65.5636C60.0126 63.022 59.0029 60.5844 57.2057 58.7872C55.4085 56.99 52.9709 55.9803 50.4293 55.9803C47.8876 55.9803 45.45 56.99 43.6528 58.7872C41.8556 60.5844 40.8459 63.022 40.8459 65.5636V89.522H21.6793C19.1376 89.522 16.7 88.5123 14.9028 86.7151C13.1056 84.9178 12.0959 82.4803 12.0959 79.9386V41.9886L7.90322 45.3428C7.41511 45.7596 6.84824 46.0741 6.23626 46.2676C5.62428 46.4611 4.97966 46.5297 4.34067 46.4693C3.70167 46.4088 3.08133 46.2207 2.51645 45.9159C1.95158 45.6111 1.45369 45.196 1.05234 44.6951C0.650995 44.1942 0.354367 43.6178 0.180066 43.0001C0.00576572 42.3824 -0.0426541 41.7359 0.0376804 41.0991C0.118015 40.4623 0.325466 39.8482 0.647721 39.2931C0.969975 38.738 1.40046 38.2533 1.91364 37.8678L13.8305 28.3324L44.1905 2.30884Z" fill="#C4C6C8"/>
</svg>
