<svg width="50" height="50" viewBox="0 0 50 50" fill="none" xmlns="http://www.w3.org/2000/svg">
<path d="M16.6667 5C10.2344 5 5 10.2344 5 16.6667V33.3333C5 39.7656 10.2344 45 16.6667 45H33.3333C39.7656 45 45 39.7656 45 33.3333V16.6667C45 10.2344 39.7656 5 33.3333 5H16.6667ZM36.6667 11.6667C37.5846 11.6667 38.3333 12.4154 38.3333 13.3333C38.3333 14.2513 37.5846 15 36.6667 15C35.7487 15 35 14.2513 35 13.3333C35 12.4154 35.7487 11.6667 36.6667 11.6667ZM25 15C30.5143 15 35 19.4857 35 25C35 30.5143 30.5143 35 25 35C19.4857 35 15 30.5143 15 25C15 19.4857 19.4857 15 25 15ZM25 18.3333C21.3151 18.3333 18.3333 21.3151 18.3333 25C18.3333 28.6849 21.3151 31.6667 25 31.6667C28.6849 31.6667 31.6667 28.6849 31.6667 25C31.6667 21.3151 28.6849 18.3333 25 18.3333Z" fill="#66FCF1"/>
</svg>
