<svg width="50" height="50" viewBox="0 0 50 50" fill="none" xmlns="http://www.w3.org/2000/svg">
<g clip-path="url(#clip0_1_18)">
<path d="M40.0001 6.66675H10.0001C8.15763 6.66675 6.66675 8.15763 6.66675 10.0001V40.0001C6.66675 41.8425 8.15763 43.3334 10.0001 43.3334H40.0001C41.8425 43.3334 43.3334 41.8425 43.3334 40.0001V10.0001C43.3334 8.15763 41.8425 6.66675 40.0001 6.66675ZM18.2553 36.6667H13.3399V20.8464H18.2553V36.6667ZM15.7488 18.5873C14.1602 18.5873 12.8842 17.2983 12.8842 15.7162C12.8842 14.1342 14.1667 12.8516 15.7488 12.8516C17.3308 12.8516 18.6134 14.1407 18.6134 15.7162C18.6134 17.2983 17.3308 18.5873 15.7488 18.5873ZM36.6733 36.6667H31.7579V28.9714C31.7579 27.1355 31.7253 24.7787 29.2058 24.7787C26.6472 24.7787 26.2566 26.7774 26.2566 28.8412V36.6667H21.3412V20.8464H26.0548V23.0079H26.1264C26.7774 21.7644 28.3855 20.4558 30.7748 20.4558C35.7553 20.4558 36.6733 23.7305 36.6733 27.9884V36.6667Z" fill="#66FCF1"/>
</g>
<defs>
<clipPath id="clip0_1_18">
<rect width="50" height="50" fill="white"/>
</clipPath>
</defs>
</svg>
