<svg width="115" height="115" viewBox="0 0 115 115" fill="none" xmlns="http://www.w3.org/2000/svg">
<path d="M73.421 0C72.5167 0 71.7583 0.641741 71.5833 1.51684L70.7665 5.90693C70.5478 7.05915 69.6581 7.90508 68.5059 8.13844C67.4557 8.35722 66.4056 8.63433 65.3847 8.95521C64.2908 9.31983 63.0948 9.04272 62.3364 8.15303L59.434 4.7693C58.8506 4.09839 57.8734 3.93796 57.0858 4.37551L54.9272 5.62982C54.1542 6.08195 53.8042 7.0154 54.0959 7.86133L55.5689 12.0764C55.9627 13.1703 55.6127 14.3517 54.7376 15.1247C53.9354 15.8393 53.177 16.5978 52.4623 17.3999C51.6893 18.275 50.5079 18.6251 49.4141 18.2459L45.199 16.7582C44.3531 16.4665 43.4196 16.8019 42.9675 17.5895L41.7132 19.7481C41.261 20.5357 41.4361 21.5275 42.107 22.1109L42.4716 22.4172C46.8909 22.5047 50.6684 25.6551 51.4851 30.016L51.7185 31.1974L52.4915 30.2785C54.2125 28.2949 56.6191 27.2011 59.0839 27.0698C62.4385 22.0234 68.1558 18.6688 74.6753 18.6688C84.9869 18.6688 93.3442 27.026 93.3442 37.3377C93.3442 43.8572 89.9896 49.5745 84.9286 52.9145C84.8119 55.3939 83.718 57.8004 81.7199 59.5069L80.801 60.2799L81.997 60.5133C86.3579 61.33 89.5083 65.1075 89.5812 69.5268L89.9021 69.8914C90.4855 70.5769 91.4773 70.7374 92.2503 70.2852L94.4234 69.0309C95.1964 68.5934 95.5465 67.6599 95.2548 66.7994L93.7671 62.5843C93.3879 61.505 93.7379 60.3091 94.5985 59.5361C95.4152 58.8214 96.1736 58.063 96.8883 57.2608C97.6613 56.4003 98.8427 56.0502 99.9366 56.4295L104.137 57.9025C104.998 58.2088 105.931 57.8588 106.383 57.0712L107.623 54.9126C108.075 54.1396 107.915 53.1478 107.229 52.5644L103.845 49.662C102.97 48.9036 102.693 47.7076 103.043 46.5992C103.379 45.5928 103.656 44.5573 103.875 43.4925C104.108 42.3549 104.954 41.4506 106.091 41.2319L110.482 40.4005C111.371 40.2547 112.013 39.4962 112.013 38.592V36.0833C112.013 35.1791 111.371 34.4207 110.482 34.2456L106.091 33.4289C104.954 33.2101 104.108 32.3204 103.875 31.1682C103.656 30.1181 103.379 29.068 103.043 28.047C102.693 26.9531 102.97 25.7572 103.845 24.9987L107.229 22.0963C107.915 21.5129 108.075 20.5211 107.623 19.7481L106.383 17.5895C105.931 16.8165 104.998 16.4665 104.137 16.7582L99.9366 18.2313C98.8427 18.6251 97.6613 18.275 96.8883 17.3999C96.1736 16.5978 95.4152 15.8393 94.5985 15.1247C93.7379 14.3517 93.3879 13.1703 93.7671 12.0764L95.2548 7.86133C95.5465 7.0154 95.211 6.08195 94.4234 5.62982L92.2503 4.37551C91.4773 3.92337 90.4855 4.09839 89.9021 4.7693L86.9997 8.15303C86.2558 9.04272 85.0599 9.31983 83.9514 8.95521C82.9305 8.63433 81.8949 8.35722 80.8302 8.13844C79.6926 7.90508 78.7883 7.04457 78.5695 5.90693L77.7528 1.51684C77.5923 0.641741 76.8339 0 75.9296 0H73.421ZM39.8171 29.8701C38.9128 29.8701 38.1544 30.5119 37.9794 31.387L37.2939 35.077C37.0022 36.6084 35.7771 37.746 34.2456 38.0523C32.9767 38.3149 31.7224 38.6357 30.5119 39.0295C29.0388 39.5254 27.4053 39.1608 26.3989 37.9794L23.9778 35.1353C23.3798 34.4644 22.388 34.304 21.615 34.7415L19.4564 35.9958C18.6688 36.448 18.3334 37.3814 18.6251 38.2273L19.8794 41.7861C20.3899 43.2592 19.9086 44.8344 18.7418 45.8699C17.7791 46.7304 16.8749 47.6493 16.0144 48.5973C14.9788 49.7641 13.3891 50.26 11.9305 49.7349L8.37181 48.4952C7.51129 48.2035 6.57785 48.5535 6.14029 49.3266L4.88598 51.4851C4.43385 52.2581 4.59428 53.2499 5.27978 53.8333L8.12386 56.269C9.29066 57.2754 9.65529 58.9089 9.17398 60.382C8.78018 61.5926 8.44473 62.8469 8.19678 64.1158C7.87591 65.6472 6.75287 66.8723 5.22144 67.164L1.53143 67.8495C0.641741 68.0246 0 68.783 0 69.6872V72.1959C0 73.1001 0.641741 73.8586 1.51684 74.019L5.20685 74.7191C6.73828 75.0108 7.87591 76.2359 8.1822 77.7528C8.44473 79.0362 8.7656 80.2906 9.17398 81.5011C9.65529 82.9742 9.29066 84.6077 8.10927 85.6141L5.27978 88.0352C4.59428 88.6332 4.43385 89.625 4.88598 90.398L6.12571 92.5566C6.57785 93.3296 7.51129 93.6796 8.37181 93.3879L11.916 92.1336C13.3891 91.6231 14.9642 92.1044 15.9998 93.2712C16.8603 94.2338 17.7791 95.1381 18.7272 95.9986C19.894 97.0342 20.3899 98.6239 19.8794 100.082L18.6251 103.641C18.3334 104.502 18.6834 105.435 19.4564 105.873L21.615 107.127C22.4026 107.579 23.3798 107.419 23.9778 106.733L26.3989 103.889C27.4053 102.722 29.0388 102.358 30.5119 102.839C31.7224 103.233 32.9767 103.568 34.2602 103.816C35.7771 104.137 37.0022 105.26 37.2939 106.792L37.994 110.482C38.1544 111.371 38.9128 112.013 39.8171 112.013H42.3257C43.23 112.013 43.9884 111.371 44.1489 110.496L44.8489 106.806C45.1261 105.275 46.3512 104.137 47.8826 103.831C49.1661 103.568 50.4058 103.247 51.6164 102.839C53.1041 102.358 54.723 102.722 55.7294 103.904L58.1651 106.733C58.7485 107.419 59.7403 107.594 60.5133 107.142L62.6864 105.887C63.4594 105.435 63.8095 104.502 63.5178 103.656L62.2635 100.097C61.753 98.6239 62.2343 97.0487 63.4011 95.9986C64.3637 95.1527 65.268 94.2338 66.1285 93.2712C67.164 92.119 68.7538 91.6231 70.2269 92.1336L73.7856 93.3879C74.6316 93.6796 75.565 93.3296 76.0171 92.5566L77.2715 90.398C77.709 89.6104 77.5486 88.6332 76.8631 88.0352L74.0336 85.6141C72.8522 84.6077 72.4876 82.9742 72.9689 81.5011C73.3627 80.2906 73.6981 79.0362 73.9607 77.7528C74.2669 76.2359 75.39 75.0108 76.936 74.7191L80.626 74.019C81.5011 73.8586 82.1429 73.1001 82.1429 72.1959V69.6872C82.1429 68.783 81.5011 68.0246 80.626 67.8641L76.936 67.164C75.4046 66.8869 74.2669 65.6472 73.9607 64.1158C73.6981 62.8469 73.3773 61.5926 72.9835 60.382C72.4876 58.9089 72.8522 57.29 74.0336 56.269L76.8777 53.8479C77.5486 53.2645 77.7236 52.2727 77.2715 51.4851L76.0171 49.3266C75.565 48.539 74.6316 48.2035 73.7856 48.4952L70.2269 49.7495C68.7538 50.26 67.1786 49.7787 66.1431 48.6119C65.2826 47.6493 64.3637 46.745 63.4157 45.8845C62.2489 44.8489 61.753 43.2592 62.2781 41.7861L63.5178 38.2273C63.8095 37.3814 63.4594 36.448 62.6864 35.9958L60.5278 34.7415C59.7548 34.304 58.7631 34.4644 58.1797 35.1499L55.744 37.9794C54.7376 39.1608 53.1041 39.5254 51.631 39.0441C50.4204 38.6503 49.1661 38.3149 47.8972 38.0523C46.3658 37.746 45.1406 36.623 44.8489 35.077L44.1635 31.387C43.9884 30.5119 43.23 29.8701 42.3257 29.8701H39.8171ZM74.6753 33.6039C72.6188 33.6039 70.9416 35.2812 70.9416 37.3377C70.9416 39.3941 72.6188 41.0714 74.6753 41.0714C76.7318 41.0714 78.4091 39.3941 78.4091 37.3377C78.4091 35.2812 76.7318 33.6039 74.6753 33.6039ZM41.0714 48.539C53.4395 48.539 63.474 58.5735 63.474 70.9416C63.474 83.3097 53.4395 93.3442 41.0714 93.3442C28.7033 93.3442 18.6688 83.3097 18.6688 70.9416C18.6688 58.5735 28.7033 48.539 41.0714 48.539ZM41.0714 63.474C36.9439 63.474 33.6039 66.814 33.6039 70.9416C33.6039 75.0691 36.9439 78.4091 41.0714 78.4091C45.199 78.4091 48.539 75.0691 48.539 70.9416C48.539 66.814 45.199 63.474 41.0714 63.474Z" fill="#66FCF1"/>
</svg>
