<svg width="50" height="50" viewBox="0 0 50 50" fill="none" xmlns="http://www.w3.org/2000/svg">
<path d="M46.6666 11.5624C45.0715 12.2721 43.3593 12.7473 41.5624 12.9622C43.3984 11.8619 44.8046 10.1171 45.4687 8.04028C43.7499 9.06242 41.8489 9.80461 39.8241 10.2017C38.203 8.47648 35.8918 7.39575 33.3333 7.39575C28.4244 7.39575 24.44 11.3736 24.44 16.2825C24.44 16.9791 24.5247 17.6627 24.6744 18.3072C17.2851 17.9361 10.7356 14.401 6.34758 9.01685C5.58586 10.332 5.14966 11.8554 5.14966 13.4895C5.14966 16.5754 6.71216 19.2968 9.10148 20.8853C7.64315 20.8398 6.26945 20.4426 5.07153 19.7786C5.07153 19.8176 5.07153 19.8502 5.07153 19.8892C5.07153 24.1991 8.13794 27.7929 12.207 28.6067C11.4583 28.8085 10.6705 28.9192 9.8632 28.9192C9.29028 28.9192 8.73039 28.8606 8.19002 28.7564C9.32284 32.2916 12.6041 34.8632 16.4973 34.9348C13.4504 37.3176 9.62232 38.7369 5.45565 38.7369C4.7395 38.7369 4.02987 38.6978 3.33325 38.6132C7.26554 41.1392 11.94 42.6106 16.9596 42.6106C33.3137 42.6106 42.2525 29.0624 42.2525 17.3111C42.2525 16.927 42.246 16.5429 42.2265 16.1653C43.9648 14.9088 45.4752 13.3463 46.6666 11.5624Z" fill="#66FCF1"/>
</svg>
