<svg width="17" height="17" viewBox="0 0 17 17" fill="none" xmlns="http://www.w3.org/2000/svg">
<path d="M13.5001 7.25V14.4375C13.5001 14.6427 13.4597 14.8459 13.3812 15.0354C13.3026 15.225 13.1875 15.3973 13.0425 15.5424C12.8974 15.6874 12.7251 15.8025 12.5355 15.8811C12.346 15.9596 12.1428 16 11.9376 16H2.5626C2.1482 16 1.75077 15.8354 1.45774 15.5424C1.16472 15.2493 1.0001 14.8519 1.0001 14.4375V5.0625C1.0001 4.6481 1.16472 4.25067 1.45774 3.95765C1.75077 3.66462 2.1482 3.5 2.5626 3.5H9.10479M11.6251 1H16.0001V5.375M7.2501 9.75L15.6876 1.3125" stroke="#66FCF1" stroke-width="2" stroke-linecap="round" stroke-linejoin="round"/>
</svg>
