<svg width="90" height="90" viewBox="0 0 90 90" fill="none" xmlns="http://www.w3.org/2000/svg">
<path d="M45.0082 66V59H43.1865M27.5565 55.5L10.9795 27.99C10.2647 26.8031 9.92849 25.4406 10.0127 24.0717C10.0969 22.7028 10.5978 21.3878 11.4531 20.29L17.3188 12.8C17.9975 11.9306 18.8776 11.225 19.8894 10.739C20.9012 10.253 22.0169 10 23.1481 10H66.8677C67.9989 10 69.1146 10.253 70.1264 10.739C71.1381 11.225 72.0183 11.9306 72.697 12.8L78.5263 20.29C79.3873 21.3843 79.8946 22.6975 79.9853 24.0664C80.076 25.4353 79.746 26.7997 79.0363 27.99L62.4593 55.5M41.3646 45L19.942 10.7M48.6512 45L70.0738 10.7M30.4347 27.5H59.5811M63.2245 62.5C63.2245 72.165 55.0687 80 45.008 80C34.9473 80 26.7915 72.165 26.7915 62.5C26.7915 52.835 34.9473 45 45.008 45C55.0687 45 63.2245 52.835 63.2245 62.5Z" stroke="white" stroke-width="3" stroke-linecap="round" stroke-linejoin="round"/>
</svg>
