<svg width="90" height="90" viewBox="0 0 90 90" fill="none" xmlns="http://www.w3.org/2000/svg">
<path d="M34.1818 80L28.1364 69.3333L16.6818 66.6667L17.7955 54.3333L10 45L17.7955 35.6667L16.6818 23.3333L28.1364 20.6667L34.1818 10L45 14.8333L55.8182 10L61.8636 20.6667L73.3182 23.3333L72.2045 35.6667L80 45L72.2045 54.3333L73.3182 66.6667L61.8636 69.3333L55.8182 80L45 75.1667L34.1818 80ZM36.8864 71.5L45 67.8333L53.2727 71.5L57.7273 63.5L66.4773 61.3333L65.6818 52L71.5682 45L65.6818 37.8333L66.4773 28.5L57.7273 26.5L53.1136 18.5L45 22.1667L36.7273 18.5L32.2727 26.5L23.5227 28.5L24.3182 37.8333L18.4318 45L24.3182 52L23.5227 61.5L32.2727 63.5L36.8864 71.5ZM41.6591 56.8333L59.6364 38L55.1818 33.1667L41.6591 47.3333L34.8182 40.3333L30.3636 45L41.6591 56.8333Z" fill="white"/>
</svg>
