<svg width="90" height="90" viewBox="0 0 90 90" fill="none" xmlns="http://www.w3.org/2000/svg">
<path d="M30 17.5C30 19.28 29.63 20.97 28.96 22.5H45C45.663 22.5 46.2989 22.7634 46.7678 23.2322C47.2366 23.7011 47.5 24.337 47.5 25V35H45C42.3478 35 39.8043 36.0536 37.9289 37.9289C36.0536 39.8043 35 42.3478 35 45V47.5H25C24.337 47.5 23.7011 47.2366 23.2322 46.7678C22.7634 46.2989 22.5 45.663 22.5 45V28.96C20.1416 29.9917 17.5216 30.2677 15 29.75V45C15 47.6522 16.0536 50.1957 17.9289 52.0711C19.8043 53.9464 22.3478 55 25 55H35V65C35 67.6522 36.0536 70.1957 37.9289 72.0711C39.8043 73.9464 42.3478 75 45 75H60.25C59.7388 72.4781 60.0146 69.8601 61.04 67.5H45C44.337 67.5 43.7011 67.2366 43.2322 66.7678C42.7634 66.2989 42.5 65.663 42.5 65V55H45C47.6522 55 50.1957 53.9464 52.0711 52.0711C53.9464 50.1957 55 47.6522 55 45V42.5H65C65.663 42.5 66.2989 42.7634 66.7678 43.2322C67.2366 43.7011 67.5 44.337 67.5 45V61.04C69.8583 60.0079 72.4784 59.7319 75 60.25V45C75 42.3478 73.9464 39.8043 72.0711 37.9289C70.1957 36.0536 67.6522 35 65 35H55V25C55 22.3478 53.9464 19.8043 52.0711 17.9289C50.1957 16.0536 47.6522 15 45 15H29.75C29.915 15.81 30 16.645 30 17.5ZM47.5 42.5V45C47.5 45.663 47.2366 46.2989 46.7678 46.7678C46.2989 47.2366 45.663 47.5 45 47.5H42.5V45C42.5 44.337 42.7634 43.7011 43.2322 43.2322C43.7011 42.7634 44.337 42.5 45 42.5H47.5ZM25 17.5C25 19.4891 24.2098 21.3968 22.8033 22.8033C21.3968 24.2098 19.4891 25 17.5 25C15.5109 25 13.6032 24.2098 12.1967 22.8033C10.7902 21.3968 10 19.4891 10 17.5C10 15.5109 10.7902 13.6032 12.1967 12.1967C13.6032 10.7902 15.5109 10 17.5 10C19.4891 10 21.3968 10.7902 22.8033 12.1967C24.2098 13.6032 25 15.5109 25 17.5ZM80 72.5C80 74.4891 79.2098 76.3968 77.8033 77.8033C76.3968 79.2098 74.4891 80 72.5 80C70.5109 80 68.6032 79.2098 67.1967 77.8033C65.7902 76.3968 65 74.4891 65 72.5C65 70.5109 65.7902 68.6032 67.1967 67.1967C68.6032 65.7902 70.5109 65 72.5 65C74.4891 65 76.3968 65.7902 77.8033 67.1967C79.2098 68.6032 80 70.5109 80 72.5ZM80 17.5C80 19.4891 79.2098 21.3968 77.8033 22.8033C76.3968 24.2098 74.4891 25 72.5 25C70.5109 25 68.6032 24.2098 67.1967 22.8033C65.7902 21.3968 65 19.4891 65 17.5C65 15.5109 65.7902 13.6032 67.1967 12.1967C68.6032 10.7902 70.5109 10 72.5 10C74.4891 10 76.3968 10.7902 77.8033 12.1967C79.2098 13.6032 80 15.5109 80 17.5ZM25 72.5C25 74.4891 24.2098 76.3968 22.8033 77.8033C21.3968 79.2098 19.4891 80 17.5 80C15.5109 80 13.6032 79.2098 12.1967 77.8033C10.7902 76.3968 10 74.4891 10 72.5C10 70.5109 10.7902 68.6032 12.1967 67.1967C13.6032 65.7902 15.5109 65 17.5 65C19.4891 65 21.3968 65.7902 22.8033 67.1967C24.2098 68.6032 25 70.5109 25 72.5Z" fill="white"/>
</svg>
